<?xml version="1.0" standalone="no"?>
<!DOCTYPE svg PUBLIC "-//W3C//DTD SVG 20010904//EN"
 "http://www.w3.org/TR/2001/REC-SVG-20010904/DTD/svg10.dtd">
<svg version="1.0" xmlns="http://www.w3.org/2000/svg"
 width="800.000000pt" height="800.000000pt" viewBox="0 0 800.000000 800.000000"
 preserveAspectRatio="xMidYMid meet">
<metadata>
Created by potrace 1.16, written by Peter Selinger 2001-2019
</metadata>
<g transform="translate(0.000000,800.000000) scale(0.100000,-0.100000)"
fill="#000000" stroke="none">
<path d="M2181 7362 c-30 -29 -44 -30 -74 -4 -16 14 -19 13 -40 -5 -18 -17
-46 -32 -67 -38 -6 -1 -74 -31 -115 -51 -16 -8 -52 -32 -80 -54 -60 -48 -184
-98 -271 -111 -76 -11 -108 -25 -100 -45 3 -8 1 -14 -4 -14 -5 0 -12 -11 -16
-25 -3 -14 -10 -25 -15 -25 -4 0 -11 -17 -15 -37 -4 -21 -10 -42 -14 -48 -4
-5 -10 -55 -13 -110 l-7 -100 44 -45 c54 -56 78 -76 89 -72 13 4 34 -22 29
-37 -3 -10 0 -11 9 -5 8 4 25 7 39 6 16 -2 33 5 45 17 10 12 23 21 30 21 6 0
21 9 33 20 12 12 22 16 22 10 0 -6 19 3 43 20 30 21 59 32 91 35 26 3 55 9 65
15 10 5 52 12 92 15 41 4 92 11 114 17 22 6 67 12 100 14 33 1 79 5 102 9 24
3 49 3 55 -2 7 -4 22 -9 32 -10 11 -2 24 -7 30 -12 6 -5 28 -12 49 -16 20 -4
37 -11 37 -16 0 -5 8 -13 18 -16 9 -4 23 -12 29 -19 7 -7 32 -15 55 -19 l42
-7 -24 -22 c-48 -41 -101 -114 -89 -122 6 -3 14 -2 18 4 11 17 97 79 121 87
12 4 37 7 56 7 19 0 31 4 28 9 -3 5 -19 9 -36 9 -26 0 -29 2 -18 15 7 8 20 15
30 15 20 0 32 47 25 95 -14 87 -14 168 0 188 8 12 15 25 15 29 0 16 -57 68
-74 68 -17 0 -66 28 -77 44 -4 5 -15 5 -25 1 -27 -11 -85 -5 -108 11 -11 8
-31 14 -44 14 -23 0 -38 13 -121 106 -32 36 -33 39 -24 81 15 63 7 93 -25 93
-14 0 -22 3 -19 7 7 6 -22 32 -36 33 -5 0 -21 -13 -36 -28z"/>
<path d="M6473 7322 c-29 -1 -53 -8 -53 -13 0 -17 -27 -39 -48 -39 -11 0 -22
-6 -25 -14 -3 -8 -25 -20 -49 -27 -24 -7 -47 -16 -52 -20 -5 -4 -20 -3 -33 2
-17 6 -30 6 -39 -2 -8 -6 -20 -9 -27 -6 -8 3 -22 -5 -31 -18 -10 -13 -23 -22
-30 -19 -7 3 -19 -2 -26 -11 -7 -8 -24 -15 -38 -15 -30 0 -94 -21 -103 -33 -4
-5 -16 -4 -28 3 -30 16 -103 -16 -95 -42 4 -12 0 -18 -11 -18 -9 0 -14 -4 -10
-9 3 -5 1 -12 -5 -16 -5 -3 -10 -24 -10 -45 0 -32 5 -43 26 -57 25 -16 25 -17
6 -24 -15 -6 -18 -14 -14 -36 2 -15 11 -36 20 -45 8 -10 10 -18 5 -18 -6 0 -3
-16 7 -36 10 -20 16 -42 13 -50 -3 -8 0 -14 6 -14 6 0 11 -7 11 -15 0 -14 14
-19 47 -18 7 1 16 -16 19 -36 4 -20 13 -45 20 -56 13 -18 14 -17 14 15 l0 35
33 -37 c30 -34 77 -52 77 -30 0 4 28 21 63 37 52 25 74 30 137 30 55 -1 82 -6
102 -19 16 -10 35 -16 43 -12 9 3 15 0 15 -9 0 -8 6 -15 14 -15 7 0 43 -29 80
-65 36 -36 73 -65 80 -65 8 0 16 -5 18 -10 7 -21 246 -35 266 -15 20 20 -9
326 -36 370 -4 6 -7 15 -7 20 -1 13 -34 94 -56 137 -5 10 -9 24 -9 32 0 7 -7
19 -15 26 -8 7 -15 20 -15 30 0 18 -39 100 -52 110 -3 3 -10 18 -13 33 -4 15
-11 27 -16 27 -5 0 -9 7 -9 15 0 8 -4 15 -10 15 -5 0 -10 6 -10 13 0 20 -52
74 -75 79 -11 2 -44 2 -72 0z"/>
<path d="M3200 7282 c0 -9 -7 -11 -20 -7 -12 4 -27 1 -35 -5 -8 -6 -18 -10
-22 -7 -4 3 -19 0 -33 -5 -20 -7 -22 -11 -10 -18 13 -8 12 -12 -5 -24 -17 -13
-17 -15 -4 -16 9 0 20 -11 23 -25 4 -14 12 -25 19 -25 8 0 8 -3 -2 -9 -14 -9
-15 -7 36 -103 14 -26 18 -60 18 -153 1 -150 -1 -155 -110 -237 -49 -37 -71
-46 -120 -53 -33 -4 -70 -7 -82 -6 -11 0 -24 -6 -27 -15 -3 -8 -11 -12 -17 -8
-8 4 -9 3 -5 -4 4 -6 13 -9 21 -5 11 4 15 -3 15 -27 0 -23 -5 -33 -19 -37 -15
-4 -19 -14 -18 -52 0 -26 -3 -53 -7 -59 -5 -8 -2 -10 8 -6 10 4 18 0 21 -10
14 -45 17 -51 22 -38 3 6 13 12 22 12 33 0 18 -25 -16 -27 -27 -1 -33 2 -33
18 0 22 -10 23 -59 9 -22 -6 -39 -6 -46 0 -15 12 -25 3 -18 -16 3 -9 -1 -14
-12 -14 -9 0 -13 5 -9 11 4 7 -4 10 -22 8 -16 -2 -34 0 -41 4 -7 4 -16 0 -21
-9 -6 -11 -11 -13 -16 -5 -5 8 -13 8 -27 1 -10 -6 -19 -8 -19 -5 0 3 -11 -6
-24 -21 -17 -21 -33 -28 -62 -29 -51 -2 -126 -24 -119 -34 3 -5 -3 -12 -12
-15 -14 -6 -14 -8 3 -21 13 -11 14 -13 3 -10 -12 5 -16 -2 -17 -35 -1 -23 -6
-50 -12 -60 -5 -10 -10 -28 -10 -40 0 -27 -78 -110 -96 -103 -8 3 -14 1 -14
-4 0 -5 -17 -8 -37 -7 -49 3 -170 14 -185 17 -16 3 -16 -18 -2 -75 8 -30 9
-50 3 -54 -6 -4 -6 -11 1 -19 8 -10 8 -19 0 -35 -6 -12 -11 -31 -10 -43 1 -12
2 -29 1 -37 -1 -13 -3 -13 -10 -1 -5 8 -7 21 -4 30 3 9 -4 5 -16 -9 -11 -14
-21 -28 -21 -32 0 -4 -18 -11 -40 -14 -44 -7 -44 -7 -30 -35 7 -13 21 -19 43
-19 l31 0 -23 -16 c-17 -12 -21 -22 -17 -40 4 -14 2 -24 -4 -24 -6 0 -9 -4 -6
-9 3 -4 -1 -16 -8 -27 -8 -10 -12 -24 -9 -31 3 -7 0 -13 -6 -13 -6 0 -11 -9
-11 -20 0 -11 -6 -20 -14 -20 -9 0 -13 -8 -9 -22 4 -21 3 -22 -10 -6 -15 18
-57 14 -57 -6 0 -6 -5 -4 -11 4 -8 11 -12 12 -16 2 -2 -6 -9 -10 -14 -6 -5 3
-9 0 -9 -5 0 -21 -3 -26 -21 -39 -11 -7 -19 -21 -19 -31 0 -11 -9 -21 -21 -24
-20 -5 -21 -3 -15 39 4 29 2 44 -5 44 -8 0 -7 5 1 15 24 29 -42 18 -75 -12
-16 -15 -50 -38 -76 -50 -42 -19 -49 -26 -54 -60 -3 -21 -10 -46 -15 -55 -6
-11 -6 -27 -1 -42 6 -13 8 -26 5 -29 -3 -3 -5 -27 -6 -53 0 -77 -48 -120 -145
-129 -32 -4 -73 -8 -91 -10 -18 -1 -48 1 -67 5 -19 4 -37 4 -40 0 -19 -31
-204 52 -277 123 -36 35 -52 44 -70 40 -37 -9 -47 -22 -53 -68 -7 -46 6 -85
56 -160 15 -22 34 -57 42 -77 9 -21 21 -38 26 -38 6 0 11 -7 11 -15 0 -25 42
-43 120 -50 101 -10 107 -11 135 -29 13 -9 35 -16 48 -16 13 0 32 -7 43 -15
10 -8 30 -15 45 -15 14 0 29 -4 35 -10 5 -5 31 -11 57 -12 26 -2 47 -6 47 -9
0 -4 17 -9 39 -13 21 -3 44 -13 51 -21 7 -8 29 -15 49 -15 28 0 33 -3 21 -11
-12 -9 -11 -9 5 -2 18 7 61 8 320 3 103 -3 141 2 173 19 14 7 28 8 40 3 19
-10 45 -5 37 8 -3 4 12 15 33 23 68 27 177 81 180 89 2 5 8 5 13 2 9 -5 37 4
154 51 150 60 229 72 469 74 155 2 216 6 235 16 83 44 302 49 452 10 31 -8 82
-15 113 -15 53 0 57 2 66 28 12 32 8 26 85 139 52 76 60 94 59 133 0 44 -28
118 -48 132 -6 5 -24 5 -41 1 -16 -3 -37 -7 -47 -8 -9 -1 -22 -6 -30 -11 -7
-6 -36 -22 -65 -35 -29 -13 -52 -28 -51 -34 3 -13 -62 -76 -72 -70 -4 2 -18
-4 -30 -15 -13 -11 -29 -20 -36 -20 -7 0 -25 -5 -41 -11 -15 -7 -41 -13 -58
-15 -16 -2 -41 -7 -55 -10 -14 -3 -48 -8 -77 -9 -29 -2 -60 -8 -71 -14 -17 -9
-63 -18 -142 -26 -19 -2 -60 -12 -90 -23 -57 -21 -195 -46 -242 -44 -16 1 -28
-3 -28 -8 0 -6 -17 -10 -37 -10 -37 0 -106 -19 -119 -33 -4 -4 -14 -7 -23 -7
-9 0 -28 -6 -42 -14 -24 -12 -61 -24 -104 -33 -52 -11 -175 -14 -175 -5 0 5
-22 12 -48 16 -27 3 -74 13 -105 21 -30 8 -71 16 -89 19 -62 8 -103 19 -139
37 -34 17 -69 49 -54 49 4 0 3 6 -3 13 -6 7 -12 45 -14 85 -2 39 -6 72 -11 72
-4 0 -2 9 5 20 11 17 10 22 -2 30 -13 9 -13 11 0 20 12 8 13 11 1 19 -7 5 -9
10 -5 12 10 4 64 85 64 95 0 7 58 75 62 73 2 0 15 4 30 10 27 10 36 29 37 80
0 13 5 27 12 31 6 4 8 13 5 19 -4 6 -3 11 1 11 5 0 35 25 66 56 43 41 63 54
77 49 11 -4 20 -3 20 2 0 10 49 33 71 33 10 0 22 6 26 13 10 17 122 69 133 62
5 -3 12 0 15 6 4 6 30 9 61 8 29 -2 57 0 60 4 4 4 14 2 21 -5 9 -7 17 -8 21
-2 4 5 23 10 44 9 25 0 40 6 48 19 10 16 9 18 -4 13 -9 -4 -16 -3 -16 1 0 13
15 28 34 35 10 4 16 10 13 14 -4 3 -2 13 3 23 11 21 -16 64 -36 56 -8 -3 -14
1 -14 10 0 8 5 12 10 9 6 -3 10 -1 10 4 0 6 -6 11 -12 11 -7 0 -2 9 11 19 18
14 21 20 10 24 -10 4 -9 6 3 6 11 1 15 6 12 15 -3 8 0 17 5 21 15 9 42 75 35
86 -3 5 0 9 5 9 6 0 11 8 11 18 0 18 29 52 44 52 4 0 22 10 39 22 22 16 46 23
79 23 25 0 44 -3 42 -7 -3 -5 2 -11 11 -14 9 -4 21 -17 25 -30 7 -17 14 -22
26 -17 12 4 15 3 10 -5 -4 -7 -2 -12 3 -12 6 0 11 -9 11 -19 0 -11 5 -21 10
-23 16 -5 0 -68 -17 -68 -11 0 -13 -9 -8 -37 6 -38 10 -47 26 -49 5 -1 11 -3
14 -4 3 -1 8 -3 13 -4 4 -1 22 -10 41 -20 18 -10 36 -14 40 -9 3 4 20 9 36 9
104 5 146 18 168 52 4 6 16 12 26 12 14 0 17 6 14 24 -5 23 -4 24 44 14 87
-18 132 -10 133 23 0 4 -20 29 -44 55 -47 53 -79 108 -69 118 4 3 2 6 -4 6
-12 0 -23 46 -14 56 3 3 6 9 6 12 2 24 17 62 25 62 6 0 10 7 10 15 0 8 4 15
10 15 5 0 7 13 4 29 -4 16 -1 32 5 35 6 4 11 16 11 27 0 10 5 19 11 19 8 0 8
5 -1 15 -10 13 -9 19 8 33 12 10 26 31 31 45 12 31 23 34 45 12 8 -8 18 -15
23 -15 4 0 22 -12 38 -26 17 -14 35 -29 40 -32 6 -4 19 -25 31 -46 12 -22 29
-41 40 -42 10 -2 24 -10 30 -18 6 -9 15 -16 19 -16 11 0 89 -72 97 -89 5 -13
7 -12 8 4 2 17 3 16 9 -5 6 -23 12 -25 55 -23 38 1 47 -1 42 -13 -7 -18 30
-20 38 -1 3 6 3 2 0 -10 -3 -13 -1 -23 5 -23 6 0 11 -11 11 -25 0 -26 15 -34
23 -12 3 6 6 0 6 -15 1 -18 8 -29 21 -33 11 -4 18 -11 15 -16 -4 -5 1 -9 10
-9 9 0 13 5 10 10 -3 6 -1 10 5 10 6 0 22 13 36 29 14 16 40 35 59 41 19 6 35
15 35 19 0 12 81 54 109 57 50 6 79 12 154 30 4 1 8 2 10 4 1 1 26 4 56 7 39
3 70 14 108 39 29 18 53 38 53 44 0 5 6 10 13 10 13 0 57 87 57 114 0 9 3 16
8 16 4 0 16 21 26 47 18 44 18 49 4 92 -9 25 -19 66 -23 91 -4 25 -13 48 -19
52 -6 4 -11 11 -12 15 -2 34 -18 73 -30 73 -8 0 -14 -5 -14 -11 0 -5 -4 -8 -9
-5 -4 3 -22 1 -39 -3 -19 -6 -32 -6 -34 0 -2 6 -16 5 -35 -2 -27 -9 -35 -8
-49 5 -8 9 -27 19 -42 22 -15 4 -39 18 -53 31 -20 18 -28 21 -32 11 -4 -9 -6
-8 -6 3 -1 12 -14 19 -46 23 -25 4 -45 11 -45 15 0 5 -18 7 -40 5 -23 -2 -40
1 -40 7 0 6 -4 8 -9 4 -13 -7 -91 17 -91 29 0 4 -11 5 -25 2 -19 -5 -25 -3
-25 11 0 13 -3 14 -12 5 -7 -7 -27 -12 -45 -12 -19 0 -44 -6 -56 -14 -19 -13
-72 -21 -187 -31 -14 -1 -25 -3 -25 -4 0 -1 -15 -4 -32 -7 -18 -2 -33 1 -33 6
0 6 -7 10 -15 10 -8 0 -15 5 -15 10 0 6 -15 9 -32 8 -24 -2 -32 1 -30 11 2 9
-3 11 -14 7 -9 -3 -22 -2 -28 3 -6 5 -25 12 -41 14 -17 2 -29 10 -27 16 1 6
-3 11 -8 11 -5 0 -10 -4 -10 -9 0 -14 -69 22 -75 39 -2 8 -15 20 -27 25 -13 6
-25 19 -27 30 -2 11 -19 33 -37 50 -27 24 -43 30 -79 30 -30 0 -45 -4 -45 -13z
m-90 -813 c0 -5 7 -9 16 -9 13 0 14 -3 5 -13 -12 -15 3 -37 27 -37 7 0 11 -4
7 -9 -3 -5 0 -13 6 -16 10 -7 2 -19 -43 -63 -10 -9 -18 -26 -18 -37 0 -16 -2
-17 -10 -5 -5 8 -10 11 -10 6 0 -5 -6 -3 -14 3 -11 10 -15 8 -19 -6 -4 -14 -5
-13 -6 5 -1 15 -7 22 -21 22 -11 0 -20 5 -20 11 0 6 6 9 13 6 6 -2 18 2 25 9
7 8 8 14 2 14 -17 0 -11 18 9 25 19 6 26 50 10 61 -15 9 -10 24 7 24 13 0 14
3 5 14 -10 12 -8 13 8 9 12 -3 21 -9 21 -14z"/>
<path d="M795 6780 c-4 -6 -23 -7 -44 -4 l-38 6 4 -43 c2 -24 5 -69 6 -100 1
-31 8 -63 15 -72 10 -12 10 -16 0 -20 -8 -4 -7 -6 4 -6 17 -1 21 -10 33 -83 3
-21 14 -42 23 -47 28 -15 85 -3 104 21 9 13 24 31 32 40 8 9 17 43 21 75 5 50
3 62 -14 80 -12 12 -23 39 -27 61 -5 34 -12 42 -50 61 -24 13 -44 27 -44 32 0
12 -17 12 -25 -1z"/>
<path d="M5403 6759 c-23 -11 -43 -29 -46 -40 -3 -13 -14 -19 -32 -19 -20 0
-26 -4 -22 -15 4 -8 2 -17 -4 -20 -5 -4 -7 -10 -4 -15 3 -5 -2 -13 -10 -18 -9
-5 -17 -15 -18 -23 -2 -8 -5 -18 -9 -24 -3 -5 -9 -25 -13 -44 -4 -19 -17 -43
-29 -53 -18 -15 -19 -17 -3 -18 9 0 17 -6 17 -14 0 -18 88 -40 160 -38 80 1
227 1 290 -1 65 -2 75 14 35 61 -14 16 -25 42 -25 56 0 18 -5 25 -17 24 -37
-3 -53 2 -53 17 0 8 5 15 10 15 15 0 12 26 -5 40 -11 9 -15 10 -15 1 0 -8 -6
-6 -16 4 -9 9 -23 14 -30 11 -8 -3 -14 -1 -14 3 0 5 7 12 16 15 21 8 8 27 -14
20 -14 -5 -15 -4 -2 5 13 9 12 12 -5 25 -28 21 -52 21 -31 0 23 -23 19 -30 -5
-8 -14 12 -18 25 -14 41 6 24 -8 32 -21 11 -5 -8 -10 -6 -19 5 -11 15 -15 14
-52 -4z"/>
<path d="M1484 6441 c-34 -21 -68 -63 -85 -107 -15 -41 -28 -168 -17 -175 5
-3 4 -18 -2 -34 -6 -16 -8 -35 -5 -43 3 -8 8 -51 11 -96 8 -109 -12 -157 -80
-191 -11 -6 -27 -28 -34 -50 -13 -39 -12 -41 14 -62 44 -35 71 -35 99 1 14 17
30 37 36 44 6 8 13 46 15 85 2 40 7 92 11 117 4 25 6 61 4 80 -1 23 4 42 17
56 11 11 25 30 31 42 6 12 22 24 35 28 29 7 38 34 23 74 -9 23 -7 41 7 87 18
55 23 133 11 153 -10 16 -58 11 -91 -9z"/>
<path d="M425 5976 c-44 -20 -82 -63 -67 -78 8 -8 8 -15 1 -24 -8 -9 -4 -21
12 -43 13 -17 27 -31 31 -31 5 0 6 -5 2 -11 -7 -11 72 -89 92 -89 6 0 32 7 59
14 26 8 52 14 56 13 16 -4 79 76 85 109 15 79 -81 154 -196 153 -25 0 -58 -6
-75 -13z"/>
<path d="M4000 5580 c0 -5 6 -10 13 -11 6 0 2 -5 -10 -11 -17 -8 -23 -21 -25
-47 -2 -57 2 -84 17 -107 12 -18 11 -24 -1 -37 -8 -9 -11 -15 -8 -12 11 8 34
-16 34 -35 0 -22 47 -73 60 -65 6 3 10 1 10 -4 0 -6 6 -11 14 -11 7 0 19 -7
26 -15 7 -9 15 -13 18 -10 3 3 16 -20 29 -51 13 -32 21 -59 18 -62 -2 -3 2
-14 10 -26 8 -11 15 -28 15 -38 0 -10 4 -18 9 -18 5 0 13 -10 17 -22 10 -32
37 -67 51 -68 7 0 10 -7 7 -15 -4 -10 0 -15 10 -15 9 0 21 -10 26 -22 5 -13
15 -30 22 -38 17 -20 76 -41 83 -29 8 13 46 -14 40 -28 -2 -7 0 -13 5 -13 6 0
10 5 10 10 0 6 5 10 10 10 6 0 8 -11 4 -25 -4 -15 -2 -25 5 -25 6 0 11 -6 11
-13 0 -7 6 -19 13 -25 7 -8 12 -41 13 -80 0 -45 7 -78 19 -102 11 -19 20 -37
21 -40 9 -33 28 -70 35 -70 5 0 9 -6 9 -12 0 -7 10 -33 22 -58 24 -50 32 -72
45 -113 9 -30 28 -44 108 -77 60 -24 85 -58 121 -160 14 -41 29 -77 33 -80 4
-3 17 -18 29 -34 12 -16 22 -25 22 -21 0 4 7 2 15 -5 8 -7 12 -17 9 -22 -3 -5
3 -12 15 -15 12 -3 21 -13 21 -23 0 -20 33 -53 44 -43 4 4 5 1 1 -7 -4 -11 3
-15 23 -16 16 -1 39 -11 50 -22 12 -12 32 -22 43 -22 18 0 19 -2 9 -15 -8 -9
-9 -15 -2 -15 6 0 14 5 17 10 4 6 15 1 26 -12 14 -16 22 -19 25 -10 8 17 24 5
24 -19 0 -13 7 -19 23 -18 12 0 16 3 10 6 -7 2 -13 9 -13 15 0 7 5 7 13 -1 8
-6 12 -23 9 -39 -3 -22 2 -31 22 -41 14 -8 23 -18 20 -23 -5 -7 10 -12 29 -9
4 0 7 -14 7 -33 0 -22 6 -36 16 -40 11 -4 14 -13 11 -27 -6 -22 26 -41 73 -43
14 0 31 -5 38 -9 7 -5 12 -3 12 5 1 10 4 9 13 -2 15 -19 107 -27 107 -10 0 10
3 10 15 0 10 -9 15 -9 15 -1 0 14 37 15 45 1 8 -13 126 -5 134 8 7 12 72 19
88 9 6 -4 14 -4 17 1 3 4 26 7 53 6 26 -1 51 4 55 10 5 8 8 7 8 -2 0 -8 8 -5
22 8 l22 21 8 -21 c4 -11 12 -20 19 -20 6 0 9 7 5 15 -3 8 -1 15 4 15 6 0 10
-8 11 -17 0 -11 3 -13 6 -5 2 6 9 9 15 6 6 -4 14 0 19 7 7 11 9 9 9 -6 1 -18
2 -18 10 3 5 12 14 22 21 22 6 0 9 -7 5 -15 -11 -29 23 -15 66 29 41 41 45 42
66 28 13 -8 22 -10 22 -4 0 6 -4 14 -10 17 -19 12 -10 23 15 20 29 -3 79 41
71 62 -3 7 1 13 10 13 10 0 14 -6 10 -15 -3 -8 -1 -15 4 -15 6 0 10 9 10 20 0
18 16 26 43 21 5 -1 5 3 2 9 -4 6 1 20 11 31 20 22 42 26 24 4 -10 -12 -8 -16
11 -24 13 -5 26 -6 29 -3 3 2 -1 7 -7 9 -15 5 -18 53 -4 53 6 0 8 17 6 38 -4
31 -3 33 4 12 7 -20 9 -14 10 32 1 35 6 58 14 61 9 3 9 9 -1 27 -12 20 -12 21
7 15 20 -6 20 -4 9 19 -9 20 -8 31 2 50 7 13 9 29 6 35 -4 6 0 11 8 11 11 0
15 9 13 30 -1 16 -5 30 -9 30 -5 0 -8 5 -8 11 0 6 7 8 16 5 12 -5 15 -2 10 9
-3 9 -2 23 3 33 13 26 32 82 42 127 6 21 14 44 18 50 5 5 12 26 16 45 4 19 20
63 36 97 16 34 29 66 29 71 0 5 11 31 25 58 14 27 28 64 31 82 3 17 10 32 15
32 5 0 9 5 9 12 0 12 55 129 92 198 10 19 28 54 38 78 11 23 23 42 27 42 5 0
14 22 20 50 7 27 19 66 27 85 9 19 23 52 31 73 9 20 20 45 25 54 6 10 10 26
10 36 0 9 7 28 16 40 9 13 14 26 11 29 -3 2 3 25 14 50 10 24 19 48 19 52 0
10 -68 39 -75 32 -4 -3 -12 -6 -18 -6 -31 -2 -88 -18 -93 -27 -4 -6 -10 -5
-16 3 -7 11 -11 11 -15 2 -2 -7 -16 -13 -31 -13 -27 0 -59 -9 -152 -42 -30
-11 -60 -20 -67 -20 -7 -1 -11 -6 -10 -11 1 -6 -9 -13 -23 -17 -14 -4 -24 -13
-22 -20 2 -8 -3 -10 -13 -7 -8 4 -15 2 -15 -3 0 -6 -8 -10 -19 -10 -10 0 -36
-8 -57 -17 -22 -9 -46 -18 -54 -20 -107 -19 -138 -23 -156 -19 -13 3 -24 1
-26 -4 -2 -7 -30 -6 -83 1 -44 6 -93 10 -110 10 -27 -1 -80 9 -200 38 -22 5
-68 12 -102 16 -35 4 -63 11 -63 15 0 5 -42 7 -92 4 -127 -5 -167 -11 -184
-25 -11 -9 -14 -9 -14 1 0 9 -4 10 -13 2 -7 -6 -22 -11 -32 -12 -11 0 -47 -3
-80 -5 -77 -7 -95 -7 -122 0 -13 3 -23 2 -23 -3 0 -5 -14 -7 -30 -4 -17 2 -43
-1 -59 -8 -16 -6 -48 -13 -72 -15 -24 -2 -44 -5 -44 -6 0 0 -43 -2 -96 -4 -53
-1 -101 -5 -106 -8 -6 -4 -13 -3 -17 0 -4 4 -44 8 -89 9 -45 1 -100 5 -122 9
-22 4 -57 8 -77 8 -21 0 -38 4 -38 9 0 5 -18 8 -40 6 -22 -1 -45 3 -51 9 -6 6
-18 9 -25 6 -8 -3 -14 0 -14 7 0 6 -4 9 -10 5 -5 -3 -37 6 -71 20 -34 14 -68
25 -76 25 -7 0 -13 5 -13 10 0 6 -5 10 -11 10 -15 0 -101 61 -117 83 -7 9 -22
17 -33 17 -19 0 -99 72 -99 89 0 8 -43 41 -55 41 -3 0 -5 -4 -5 -10z"/>
<path d="M2828 4765 c-2 -1 -46 -5 -98 -9 -95 -7 -123 -12 -233 -39 -93 -23
-89 -34 13 -36 95 -2 172 -10 370 -36 189 -25 230 -33 350 -65 128 -35 193
-39 425 -28 137 7 177 3 242 -23 29 -12 35 -11 49 3 15 15 14 17 -12 31 -16 8
-45 18 -64 22 -41 9 -256 72 -285 84 -21 8 -167 42 -265 60 -94 18 -230 31
-362 35 -70 2 -128 3 -130 1z"/>
<path d="M2355 4635 c-199 -37 -396 -167 -503 -333 -53 -82 -93 -187 -97 -257
-1 -31 -6 -59 -10 -63 -13 -11 2 140 18 183 20 57 15 64 -41 54 -124 -23 -346
-121 -445 -197 -94 -72 -169 -169 -204 -266 -17 -47 -27 -182 -14 -190 10 -6
26 32 36 82 4 17 10 32 15 32 4 0 10 9 13 19 6 26 83 74 106 66 17 -5 17 -10
5 -63 -20 -85 -18 -165 7 -213 25 -50 31 -47 16 8 -16 59 1 105 70 188 114
137 166 178 255 203 58 16 53 -1 -10 -34 -104 -54 -162 -124 -162 -196 0 -74
86 -191 139 -191 19 0 32 -6 34 -16 4 -13 5 -13 6 2 0 9 5 17 10 17 5 0 12 11
15 24 11 43 54 82 131 120 89 43 121 42 111 -5 l-6 -29 31 16 31 15 -26 24
c-27 25 -33 54 -15 72 16 16 79 -6 79 -28 0 -10 5 -21 11 -24 6 -4 8 -13 5
-20 -5 -13 232 -136 324 -168 198 -70 350 -102 350 -75 0 9 23 21 58 32 31 10
63 23 70 28 8 7 12 7 12 -3 0 -8 4 -7 13 4 15 22 310 98 397 102 19 1 53 7 75
13 22 7 71 12 108 12 38 0 76 4 85 9 22 12 120 14 281 7 99 -5 128 -3 140 8 9
8 59 28 111 46 129 43 274 103 290 120 3 3 19 11 35 18 68 30 213 138 207 155
-1 5 3 15 9 23 6 8 8 14 4 14 -4 0 -2 7 5 15 8 9 10 28 6 50 -7 37 -20 45 -30
20 -6 -17 -66 -21 -66 -5 0 16 -50 12 -56 -5 -7 -17 -13 -18 -34 -5 -12 8 -12
12 -2 18 9 6 4 9 -15 10 -40 1 -59 6 -75 19 -35 29 -107 46 -212 49 -61 2
-115 -1 -121 -6 -6 -5 -16 -5 -23 -1 -15 9 -70 2 -78 -10 -3 -5 -10 -9 -15 -9
-6 0 -7 5 -3 12 5 7 2 9 -9 5 -34 -13 -99 -28 -115 -26 -39 3 -93 -2 -88 -9 2
-4 -19 -7 -47 -6 -29 0 -63 -4 -77 -10 -26 -12 -200 -12 -285 -2 -213 28 -326
69 -412 151 -29 27 -53 44 -53 37 0 -6 -7 -9 -16 -5 -12 4 -15 2 -12 -8 3 -9
-7 -18 -26 -24 -26 -9 -31 -15 -28 -38 2 -16 -3 -29 -10 -32 -8 -3 -13 -21
-13 -44 0 -26 -3 -37 -11 -34 -19 7 -25 33 -9 39 7 3 11 12 8 20 -11 30 10 68
83 144 88 92 139 115 230 108 79 -7 90 -25 17 -27 -32 0 -73 -4 -91 -7 -82
-16 -49 -115 55 -168 39 -19 64 -21 57 -3 -6 16 19 74 43 103 54 63 175 119
291 133 46 6 119 22 163 36 45 14 104 25 135 25 41 0 59 5 74 20 11 11 20 21
20 23 0 2 -30 -1 -67 -6 -113 -15 -265 -4 -373 27 -52 15 -146 34 -210 42 -63
8 -167 22 -230 30 -154 21 -367 25 -455 9z m515 -129 c14 -3 68 -12 120 -21
52 -10 102 -20 110 -23 8 -3 18 -6 22 -6 3 -1 9 -4 13 -8 11 -10 -63 -1 -155
20 -105 23 -126 26 -220 27 -71 0 -143 -7 -220 -21 -133 -24 -283 -114 -356
-213 -38 -51 -78 -161 -70 -188 3 -10 1 -25 -4 -33 -8 -13 -11 -12 -24 5 -8
11 -12 23 -9 28 2 4 6 29 9 55 8 87 75 190 165 256 76 55 233 117 329 129 39
6 251 0 290 -7z m-810 -356 c0 -5 -4 -10 -9 -10 -13 0 -2 -67 16 -102 7 -15
12 -31 12 -35 -1 -4 0 -15 4 -23 7 -19 24 -94 32 -140 3 -19 8 -42 11 -51 2
-9 -3 -22 -11 -29 -14 -12 -20 -10 -39 13 -13 15 -28 27 -34 27 -6 0 -9 6 -6
14 3 7 -2 16 -11 20 -9 3 -14 10 -11 15 3 5 -2 15 -11 22 -14 12 -15 11 -9 -9
4 -12 4 -22 -1 -22 -9 1 -43 70 -43 89 0 8 -8 11 -20 8 -11 -3 -18 -1 -14 4 3
5 0 9 -6 9 -7 0 -5 6 4 15 8 9 13 22 10 30 -4 8 -1 15 5 15 6 0 11 9 11 20 0
11 7 23 15 26 8 4 13 10 10 14 -6 9 73 90 87 90 4 0 8 -4 8 -10z m319 -236 c6
4 11 1 11 -7 0 -10 7 -13 20 -10 11 3 20 1 20 -5 0 -5 21 -19 48 -30 70 -29
92 -35 92 -23 0 6 -4 11 -10 11 -8 0 -80 68 -80 76 0 9 48 -13 61 -28 9 -10
21 -18 28 -18 6 0 11 -4 11 -9 0 -5 14 -12 30 -16 17 -4 28 -10 25 -15 -3 -4
3 -6 13 -3 11 2 25 -2 33 -10 8 -8 32 -20 54 -26 22 -7 47 -15 55 -18 17 -7
28 -9 51 -11 20 -2 21 -32 0 -56 -14 -15 -14 -18 -1 -16 34 5 49 0 44 -15 -5
-11 1 -15 18 -15 14 0 37 -11 51 -24 17 -16 33 -22 47 -19 11 3 20 1 20 -4 0
-26 -323 -40 -429 -18 -66 13 -200 63 -233 87 -18 12 -36 23 -40 23 -9 0 -33
22 -68 61 -14 15 -20 25 -13 21 6 -4 15 -2 19 4 5 8 8 8 13 0 4 -6 20 -12 37
-13 16 -1 34 -5 40 -10 6 -4 20 -6 32 -3 12 2 22 -1 22 -6 0 -13 42 -1 52 15
14 20 8 27 -13 21 -18 -6 -21 -4 -17 11 2 11 -4 27 -14 37 -10 9 -18 13 -18 7
0 -5 -7 -10 -15 -10 -8 0 -15 5 -15 10 0 6 5 10 10 10 18 0 10 22 -10 27 -21
5 -25 15 -13 26 4 4 10 2 14 -4 4 -6 12 -8 18 -5z"/>
<path d="M1934 4518 c-16 -13 -35 -29 -42 -38 -12 -13 -12 -13 -6 0 5 8 -6 3
-24 -12 -17 -14 -64 -45 -104 -68 -92 -52 -145 -90 -183 -130 -39 -41 -23 -51
58 -33 34 8 78 16 97 19 58 9 87 24 99 52 15 31 61 92 113 147 39 42 46 55 27
55 -8 0 -8 5 1 15 19 22 -3 18 -36 -7z"/>
<path d="M3558 4306 c-16 -5 -28 -14 -28 -19 0 -5 7 -7 15 -3 8 3 15 0 15 -7
0 -7 -24 -20 -52 -29 -49 -15 -55 -15 -73 0 -11 9 -15 10 -8 3 9 -11 9 -16 0
-26 -21 -20 -71 -32 -100 -24 -23 6 -28 5 -23 -7 3 -8 0 -14 -7 -13 -35 4 -55
-3 -60 -21 -6 -24 1 -25 33 -3 14 9 19 10 13 3 -23 -25 -14 -32 30 -26 78 11
321 34 432 41 44 3 105 8 135 11 30 4 96 8 145 10 50 1 95 4 100 4 22 4 131
-13 148 -22 10 -5 26 -6 35 -3 14 6 13 9 -8 17 l-25 10 30 13 30 13 -27 10
c-14 6 -31 18 -36 28 -7 12 -14 14 -28 7 -26 -13 -186 -7 -231 8 -21 7 -56 11
-78 9 -22 -1 -51 -3 -65 -4 -14 -1 -29 1 -35 5 -5 4 -48 10 -95 13 -47 4 -101
8 -120 10 -19 1 -47 -2 -62 -8z"/>
<path d="M4672 3789 c-18 -16 -46 -32 -62 -36 -17 -3 -28 -9 -25 -13 2 -4 -7
-6 -20 -4 -16 1 -25 -3 -25 -12 0 -8 -10 -15 -22 -15 -13 -1 -30 -2 -38 -3 -8
-1 -22 -5 -30 -11 -14 -9 -39 -14 -97 -18 -13 -1 -23 -5 -23 -9 0 -5 -11 -8
-24 -8 -14 0 -32 -7 -41 -16 -9 -9 -25 -14 -35 -11 -11 3 -23 1 -26 -4 -3 -5
-18 -9 -35 -9 -16 0 -29 -4 -29 -8 0 -10 109 -4 175 10 28 6 63 12 79 13 81 8
126 19 181 43 64 27 108 60 99 73 -3 5 0 9 6 9 10 0 34 49 28 56 -2 1 -18 -11
-36 -27z"/>
<path d="M4945 3651 c-6 -29 -28 -46 -52 -42 -7 1 -16 -7 -22 -17 -5 -9 -29
-27 -53 -39 -115 -56 -159 -74 -168 -68 -5 3 -10 1 -10 -6 0 -8 -3 -9 -13 0
-11 8 -17 5 -27 -15 -9 -17 -20 -24 -32 -21 -10 3 -18 1 -18 -5 0 -5 -6 -8
-12 -6 -7 3 -32 -1 -55 -8 -35 -11 -42 -10 -47 2 -7 19 -36 18 -36 -1 0 -19
-16 -20 -23 -2 -4 10 -19 12 -54 10 -89 -8 -138 -11 -176 -12 -23 -1 -36 -5
-32 -11 3 -5 2 -10 -4 -10 -5 0 -12 4 -15 9 -3 5 -17 9 -30 9 -18 0 -23 -5
-19 -15 5 -13 2 -13 -17 -3 -18 10 -24 9 -32 -1 -7 -11 -11 -11 -15 -1 -7 18
-57 16 -50 -3 4 -8 2 -17 -3 -20 -6 -4 -10 -1 -10 5 0 6 -7 10 -16 8 -10 -2
-19 3 -22 11 -3 10 2 11 18 6 16 -5 21 -3 18 6 -2 7 -14 13 -26 14 -16 1 -22
-4 -22 -18 0 -11 -3 -17 -7 -14 -3 4 -12 2 -19 -3 -9 -8 -12 -6 -10 7 1 13 -7
18 -29 18 -16 1 -33 -4 -37 -9 -5 -8 -8 -8 -8 -1 0 6 -13 12 -30 13 -21 2 -30
-2 -30 -13 0 -13 -4 -14 -21 -5 -11 6 -33 8 -50 5 -16 -4 -29 -2 -29 3 0 10
-71 9 -88 -2 -6 -3 -22 -2 -36 4 -17 6 -27 6 -32 -1 -3 -6 -15 -9 -25 -6 -11
3 -17 2 -15 -2 3 -4 -50 -7 -117 -8 -113 -2 -247 -16 -268 -29 -5 -3 -9 -1 -9
4 0 18 -94 6 -134 -16 -5 -3 -6 0 -3 5 4 6 -5 14 -20 18 -17 4 -29 2 -34 -7
-13 -20 -11 -28 9 -29 46 -4 99 -9 136 -13 23 -2 47 1 55 8 11 8 13 8 8 0 -5
-9 26 -14 106 -19 121 -7 178 -12 217 -20 14 -3 63 -7 110 -10 97 -5 169 -12
290 -25 47 -6 93 -10 102 -10 10 0 20 -10 24 -25 5 -21 12 -25 41 -25 22 0 32
-4 27 -11 -4 -8 1 -9 17 -4 32 10 26 10 92 1 31 -5 57 -12 57 -16 0 -4 12 -7
28 -8 15 0 43 -4 62 -8 19 -4 50 -7 68 -7 17 0 32 -4 32 -9 0 -8 -439 -3 -535
6 -27 3 -93 10 -145 16 -52 5 -142 15 -200 21 -58 5 -121 12 -141 15 -20 2
-76 8 -125 14 -49 5 -102 12 -119 15 -16 3 -88 14 -160 24 -140 21 -395 80
-460 106 -22 9 -65 27 -95 41 -30 15 -64 30 -75 34 -11 4 -37 15 -58 24 -21 9
-42 14 -47 11 -5 -3 -25 4 -45 16 -37 22 -165 40 -166 23 0 -5 -2 -28 -4 -51
-2 -31 0 -43 10 -43 7 0 19 -13 27 -30 13 -30 28 -40 28 -18 0 9 3 9 12 0 6
-6 10 -14 7 -16 -9 -9 -79 -15 -79 -7 0 6 -18 10 -39 9 -22 0 -43 2 -48 5 -5
3 -14 -3 -21 -13 -11 -18 -4 -23 81 -64 50 -24 135 -58 187 -76 184 -62 223
-80 267 -126 22 -24 48 -44 56 -44 13 0 27 -20 27 -39 0 -20 -244 23 -337 60
-15 6 -37 15 -48 19 -11 4 -36 15 -55 23 -19 9 -48 19 -65 23 -16 4 -55 20
-87 36 -31 15 -59 28 -62 28 -3 0 -35 20 -72 45 -36 25 -67 45 -69 45 -2 0
-14 9 -27 20 -154 129 -204 185 -243 273 -20 46 -22 48 -38 32 -9 -9 -17 -25
-17 -36 0 -24 -16 -25 -29 -1 -8 13 -10 8 -11 -26 0 -56 17 -96 74 -165 25
-31 46 -61 46 -67 0 -5 9 -15 20 -22 11 -7 20 -16 20 -21 0 -4 15 -20 32 -36
33 -30 33 -57 1 -30 -10 8 -36 24 -58 34 -22 11 -43 24 -47 30 -4 5 -10 7 -13
4 -3 -4 8 -21 25 -39 35 -37 36 -40 14 -40 -8 0 -12 -4 -9 -10 3 -5 15 -10 26
-10 11 0 18 -4 15 -9 -3 -5 4 -11 16 -15 22 -5 23 -6 3 -21 -12 -10 -14 -15
-5 -12 24 6 58 -31 52 -59 -2 -13 -9 -24 -14 -24 -15 0 -114 58 -128 75 -7 8
-16 15 -21 15 -16 0 -89 52 -84 60 5 8 -40 50 -54 50 -34 0 -117 148 -141 253
-8 32 -19 57 -26 57 -7 0 -14 8 -17 18 -3 13 -7 10 -18 -13 -9 -20 -14 -70
-14 -152 0 -67 -2 -123 -5 -126 -22 -20 -94 -57 -110 -57 -16 0 -19 -5 -15
-23 6 -22 -20 -60 -47 -69 -9 -3 1 -34 35 -109 l49 -104 -36 -31 -36 -31 36
-79 c20 -43 60 -131 89 -194 29 -63 92 -200 140 -305 48 -104 98 -212 110
-240 13 -27 33 -74 45 -104 11 -29 45 -103 75 -165 30 -61 64 -142 76 -181 26
-82 65 -174 84 -195 7 -8 20 -40 30 -70 26 -83 105 -228 172 -316 78 -104 84
-114 84 -178 1 -59 6 -69 79 -146 25 -26 50 -54 56 -61 7 -8 26 -25 43 -39 17
-14 31 -32 32 -40 0 -10 2 -11 6 -2 2 6 11 12 19 12 9 0 12 -4 9 -10 -8 -13
24 -60 41 -60 8 0 14 -7 14 -15 0 -9 11 -20 24 -25 13 -5 26 -14 28 -20 2 -6
14 -12 28 -13 28 -1 50 -25 43 -45 -4 -10 1 -11 23 -6 40 9 45 13 42 31 -2 9
3 18 10 21 8 2 12 -2 10 -9 -1 -8 1 -15 6 -17 17 -4 15 111 -2 131 -8 9 -13
17 -11 17 2 0 19 4 36 9 22 7 35 6 39 -1 4 -7 2 -8 -4 -4 -7 4 -12 2 -12 -3 0
-6 9 -11 20 -11 11 0 19 -5 17 -11 -1 -6 4 -14 11 -16 7 -3 12 4 12 15 0 11
-6 22 -12 25 -7 2 -1 4 13 3 17 -1 25 -6 22 -13 -5 -14 9 -18 20 -6 13 13 59
12 54 -1 -5 -13 30 -20 38 -7 2 5 28 2 57 -6 29 -7 80 -13 114 -12 33 1 65 0
70 -3 5 -3 44 -5 87 -3 43 1 80 -2 84 -8 3 -5 29 -6 59 -2 37 4 54 3 54 -5 0
-6 8 -5 23 4 15 10 33 12 57 7 19 -4 52 -3 74 1 21 5 46 6 56 3 9 -3 30 -1 45
5 17 7 32 7 39 1 7 -6 18 -4 30 4 11 8 31 12 50 9 21 -4 27 -3 18 4 -11 7 -9
10 8 15 16 4 20 2 16 -9 -6 -16 9 -19 19 -4 3 6 14 10 23 10 14 0 14 -2 3 -9
-10 -7 -7 -9 12 -8 15 1 27 7 27 14 0 8 13 11 39 9 32 -3 38 0 34 13 -3 14 3
16 34 15 23 -1 49 6 65 17 29 21 43 24 33 9 -10 -17 1 -13 63 19 12 6 22 7 22
3 0 -14 29 -10 34 4 3 8 12 11 21 8 9 -4 15 -1 15 7 0 9 13 14 39 14 29 1 45
7 58 24 14 18 25 22 41 17 12 -4 20 -12 17 -17 -4 -5 0 -9 9 -9 18 0 26 22 12
35 -6 6 -9 9 -7 8 2 -2 11 6 18 17 11 15 21 19 41 14 35 -9 37 -11 23 -28 -9
-11 -7 -15 9 -19 20 -5 37 7 22 17 -10 6 -3 66 7 66 3 0 15 -8 26 -16 l20 -16
-20 4 c-13 2 -20 -3 -20 -12 0 -9 10 -15 25 -15 19 0 24 5 23 20 -1 11 0 14 3
8 8 -18 24 -16 24 2 0 9 -9 15 -25 15 -18 0 -26 7 -31 24 -3 14 -3 29 0 35 3
5 0 12 -6 15 -7 3 -4 5 7 3 11 -1 22 -12 25 -26 5 -23 6 -23 23 -7 9 10 21 14
27 11 5 -3 10 -2 10 3 0 6 -15 15 -32 22 -21 7 -28 14 -19 17 18 7 51 41 51
53 0 5 -8 6 -17 3 -16 -6 -16 -5 -5 10 8 8 19 14 27 11 7 -3 16 -1 20 5 3 6
-1 11 -9 11 -9 0 -16 7 -16 15 0 8 4 15 9 15 5 0 13 9 16 21 4 11 25 47 47 81
22 33 52 90 68 126 15 37 37 85 48 107 62 120 152 317 167 365 27 84 77 190
91 190 20 0 72 67 110 143 20 39 84 139 143 222 128 181 161 229 181 260 48
76 136 203 153 222 17 19 18 25 6 57 -12 33 -11 36 14 56 25 20 27 26 22 70
-4 37 -2 49 10 53 8 4 15 18 15 35 0 23 -6 30 -36 41 -43 16 -49 29 -29 67 21
41 19 52 -16 73 -17 10 -37 28 -45 40 -8 11 -21 21 -28 21 -6 0 -33 13 -59 30
-37 23 -47 35 -47 57 -1 24 -9 32 -51 51 -48 23 -51 23 -77 6 -15 -9 -34 -26
-43 -36 -9 -10 -19 -18 -23 -18 -3 0 -29 -11 -58 -25 -59 -29 -58 -28 -58 -15
0 10 34 27 54 28 5 0 12 4 15 9 3 5 23 19 44 32 20 12 34 27 31 33 -3 5 3 12
15 15 12 3 21 13 21 22 0 17 -29 102 -30 87 0 -5 -8 -2 -17 7 -16 14 -19 34
-14 91 1 4 8 5 17 2 8 -3 12 -2 9 4 -3 5 -1 19 5 30 11 20 4 70 -10 70 -5 0
-11 -13 -15 -29z m-3830 -651 c7 0 22 -12 33 -26 18 -26 19 -26 45 -9 26 17
27 17 28 -1 1 -11 0 -23 -2 -29 -1 -5 -3 -23 -4 -39 -1 -16 -10 -35 -19 -42
-15 -10 -16 -15 -4 -36 7 -12 18 -26 23 -30 6 -5 5 -11 -3 -17 -21 -13 -121
-35 -129 -28 -8 9 -4 243 5 277 6 24 7 24 10 3 2 -13 9 -23 17 -23z m3563
-220 c19 -34 37 -43 63 -35 20 7 26 25 9 25 -5 0 -10 5 -10 10 0 17 29 11 47
-10 10 -11 23 -20 29 -20 13 0 28 -30 19 -39 -3 -3 -9 -1 -13 5 -4 7 -24 13
-44 16 -21 2 -35 2 -33 -1 3 -2 0 -10 -6 -17 -8 -9 -5 -11 10 -7 12 3 21 1 21
-6 0 -6 -15 -11 -32 -11 -27 0 -41 -9 -75 -47 -33 -39 -44 -46 -54 -35 -7 6
-17 12 -23 12 -5 0 -6 -3 -3 -7 4 -3 -5 -14 -21 -23 -19 -12 -29 -14 -35 -6
-6 8 -10 7 -14 -1 -2 -7 -16 -13 -29 -13 -13 0 -24 -4 -24 -10 0 -5 -4 -10
-10 -10 -5 0 -10 7 -10 15 0 8 7 15 15 15 9 0 15 9 15 21 0 21 0 21 48 2 6 -3
12 0 12 5 0 6 13 17 29 25 26 13 31 13 46 -2 15 -15 16 -15 9 2 -7 19 11 24
22 6 4 -8 10 -6 17 6 7 12 5 20 -4 26 -11 7 -10 11 5 22 17 12 17 14 2 20 -9
4 -16 13 -16 22 0 8 -9 15 -20 15 -11 0 -20 5 -20 10 0 6 9 10 20 10 22 0 26
10 10 26 -6 6 -3 10 11 11 13 1 26 -8 37 -27z m-508 -110 c0 -5 8 -10 18 -10
9 0 23 -4 31 -9 13 -8 13 -12 1 -26 -12 -14 -12 -18 1 -26 20 -13 29 -11 36 7
3 9 0 20 -8 26 -10 7 -9 8 6 3 11 -4 27 -8 36 -9 24 -3 79 -46 79 -62 0 -8 -7
-14 -16 -14 -11 0 -14 6 -9 20 5 15 3 18 -9 14 -9 -3 -16 -10 -16 -15 0 -17
-48 -9 -54 8 -5 11 -10 13 -14 7 -11 -16 -41 -24 -47 -13 -10 15 -27 -2 -22
-22 6 -23 -6 -25 -23 -4 -9 10 -9 15 -1 15 6 0 11 7 11 15 0 8 -7 15 -15 15
-8 0 -15 -4 -15 -10 0 -5 -6 -10 -14 -10 -9 0 -12 7 -9 20 3 13 0 20 -8 20
-28 0 15 20 46 21 23 0 26 2 12 8 -10 4 -18 11 -17 15 1 5 -4 13 -12 17 -9 6
-7 9 10 9 12 0 22 -4 22 -10z m-340 -56 c13 -1 28 3 32 9 6 9 10 9 16 1 4 -6
17 -14 30 -18 12 -4 22 -13 22 -21 0 -7 7 -15 15 -19 9 -3 15 0 15 9 0 17 27
45 45 45 7 0 15 -9 18 -19 5 -20 65 -52 102 -55 20 -1 29 -31 10 -31 -5 -1
-20 -6 -32 -13 -13 -7 -23 -11 -23 -8 0 2 -16 0 -35 -4 -31 -7 -39 -5 -59 17
-22 23 -26 24 -52 11 -20 -9 -29 -21 -28 -36 1 -23 -12 -28 -34 -14 -9 6 -10
16 -4 32 5 14 5 34 -1 51 -9 22 -17 27 -43 26 -38 -1 -39 0 -49 32 -6 21 -5
23 11 16 11 -4 30 -9 44 -11z m-659 -75 c7 -4 13 -20 14 -36 0 -19 6 -29 18
-31 15 -3 18 0 12 17 -5 15 -2 21 10 21 9 0 14 -4 10 -9 -3 -5 -1 -12 5 -16 6
-4 8 -11 5 -16 -4 -5 -1 -9 5 -9 13 0 4 -53 -14 -82 -18 -29 -46 -23 -46 11 0
28 -1 29 -37 20 -21 -6 -48 -11 -61 -13 -13 -2 -29 -9 -35 -15 -8 -8 -17 -4
-32 16 -21 25 -23 25 -53 12 -38 -16 -63 -66 -41 -80 9 -6 10 -9 2 -9 -7 0
-24 11 -39 25 -24 23 -22 31 9 26 4 0 7 6 7 14 0 18 -16 20 -23 3 -4 -10 -8
-9 -16 2 -12 17 11 40 41 40 10 0 18 5 18 10 0 6 -5 10 -11 10 -6 0 -9 9 -6
20 3 10 0 21 -6 23 -9 3 94 67 108 67 3 0 15 -9 26 -19 17 -16 26 -17 50 -9
16 5 29 17 29 25 0 12 -8 14 -35 10 -31 -5 -33 -4 -21 9 8 8 26 14 40 14 14 0
28 6 33 12 4 8 10 1 14 -21 4 -18 13 -37 20 -42z m381 41 c23 -21 44 -27 33
-10 -3 6 1 7 10 4 8 -4 18 -17 21 -31 4 -14 9 -21 13 -16 13 18 47 30 66 22
17 -6 17 -8 3 -8 -10 -1 -18 -3 -18 -5 0 -2 -3 -11 -6 -19 -8 -21 46 -38 74
-23 11 6 21 13 21 16 0 16 14 39 22 35 4 -3 6 -11 3 -18 -2 -7 9 -18 26 -26
25 -10 28 -16 19 -27 -14 -17 -69 -19 -70 -1 0 10 -2 10 -6 0 -2 -7 -20 -13
-39 -13 -27 0 -32 -3 -27 -17 5 -14 1 -13 -16 5 -26 26 -41 28 -41 6 0 -12 -7
-15 -24 -12 -14 3 -30 1 -37 -3 -8 -5 -29 4 -53 22 -26 19 -52 29 -75 29 -27
0 -32 3 -21 10 13 8 13 11 -2 26 -14 15 -22 16 -43 6 -17 -8 -32 -9 -42 -3
-23 12 48 23 105 16 32 -4 44 -2 48 10 3 8 10 12 15 9 5 -3 9 4 9 15 0 26 5
26 32 1z m-948 -21 c-3 -5 4 -9 15 -9 11 0 23 5 27 12 5 8 10 7 18 -3 11 -14
26 -18 84 -21 38 -2 42 -13 7 -22 -14 -4 -25 -11 -25 -16 0 -16 21 -22 36 -9
8 6 18 9 21 5 4 -4 2 -11 -5 -15 -10 -6 -10 -10 2 -20 17 -15 29 0 20 26 -6
17 -6 17 11 1 17 -15 17 -17 -1 -36 -11 -10 -32 -22 -47 -26 -24 -6 -30 -3
-34 14 -3 11 -12 20 -19 20 -8 0 -14 5 -14 10 0 18 -30 7 -65 -24 -18 -17 -47
-30 -66 -32 -29 -3 -31 -2 -18 9 43 33 21 95 -30 81 -14 -3 -32 -7 -39 -7 -10
0 -12 -9 -8 -28 7 -38 -22 -42 -54 -8 -20 20 -23 28 -13 38 7 6 16 11 20 10
27 -5 45 2 40 16 -5 11 0 13 23 8 28 -5 32 -1 29 23 -2 13 22 20 56 16 19 -2
32 -8 29 -13z"/>
<path d="M4593 1059 c-4 -12 -14 -19 -30 -19 -15 0 -22 -4 -17 -11 14 -24 21
-76 10 -76 -65 1 -76 -17 -16 -27 26 -4 40 -12 40 -21 0 -8 9 -20 20 -27 25
-16 25 -23 0 -50 -15 -16 -17 -24 -8 -29 9 -6 5 -11 -12 -18 -14 -5 -19 -10
-11 -10 10 -1 11 -4 2 -15 -10 -11 -8 -16 8 -21 12 -3 25 -4 30 0 6 3 8 -9 6
-27 -4 -25 -2 -29 6 -18 8 11 12 12 16 2 2 -6 9 -9 14 -6 6 3 3 16 -6 31 -9
14 -14 27 -11 31 3 3 6 0 6 -6 0 -7 6 -12 14 -12 8 0 18 -9 21 -20 8 -25 31
-26 44 -2 10 16 10 16 11 0 0 -9 5 -28 11 -41 10 -23 13 -24 40 -10 19 9 34
11 46 5 10 -5 27 -8 38 -6 11 2 37 7 58 10 41 7 50 30 15 37 -13 3 -7 4 12 3
20 -1 42 -6 49 -11 9 -5 19 -2 28 10 12 17 13 17 13 -9 0 -21 4 -27 17 -24 22
4 30 38 11 49 -9 6 -7 9 9 9 12 0 25 5 29 11 4 8 9 7 15 -2 5 -9 3 -16 -6 -19
-11 -4 -11 -8 1 -24 14 -19 14 -19 14 3 0 18 4 22 17 17 16 -6 16 -6 0 12 -9
10 -17 25 -17 33 0 8 -5 20 -11 26 -8 8 -8 17 0 31 15 27 15 27 -14 28 -36 3
-57 23 -49 47 5 15 3 19 -9 14 -9 -3 -18 1 -21 10 -5 12 -9 13 -20 3 -23 -19
-59 5 -53 36 3 16 0 24 -9 24 -8 0 -14 5 -14 11 0 8 -5 7 -15 -1 -13 -11 -18
-10 -31 6 -14 18 -15 18 -9 -3 5 -17 2 -23 -9 -23 -9 0 -16 7 -16 15 0 9 -10
15 -26 15 -21 0 -24 4 -20 23 3 12 3 16 0 10 -8 -18 -49 -16 -64 2 -7 9 -15
14 -17 11 -3 -2 -17 -1 -33 4 -18 5 -32 4 -39 -3 -8 -8 -11 -7 -11 5 0 24 -41
31 -47 7z"/>
<path d="M5227 122 c4 -26 2 -42 -5 -42 -6 0 -13 6 -15 13 -2 6 -3 0 -1 -15 4
-31 -15 -38 -36 -13 -10 12 -10 15 4 15 9 0 16 5 16 10 0 14 -4 13 -44 -9 -25
-14 -36 -17 -40 -8 -3 8 -14 1 -30 -18 -22 -25 -26 -27 -32 -12 -6 16 -8 17
-31 2 -23 -16 -26 -15 -43 3 -10 11 -17 23 -14 26 2 3 -2 2 -8 -4 -7 -5 -20
-10 -29 -10 -9 0 -20 -10 -23 -22 -6 -18 -9 -20 -14 -8 -9 19 -32 24 -32 7 0
-9 -2 -9 -8 1 -7 9 -15 10 -35 3 -15 -6 -27 -15 -27 -20 0 -5 -10 -12 -22 -14
-13 -2 -4 -5 19 -6 24 0 44 4 47 12 5 9 7 9 12 0 4 -9 361 -12 1585 -13 l1579
0 0 46 c0 44 -1 46 -25 40 -18 -5 -25 -2 -25 9 0 8 -4 15 -10 15 -5 0 -10 -8
-10 -19 0 -15 -7 -18 -35 -15 -19 1 -35 -2 -35 -7 0 -4 -13 -6 -29 -3 -16 3
-38 1 -49 -5 -16 -8 -21 -7 -26 4 -7 19 -26 19 -26 0 0 -18 -17 -20 -23 -3 -3
10 -9 10 -26 0 -12 -7 -43 -13 -69 -14 -26 0 -52 -5 -59 -10 -7 -6 -14 -4 -20
5 -4 8 -19 18 -32 22 -19 6 -23 4 -18 -8 4 -11 -3 -16 -23 -19 -16 -3 -34 0
-39 5 -5 5 -15 6 -23 1 -17 -11 -88 -12 -94 -2 -3 5 -8 6 -12 4 -4 -2 -38 -7
-76 -10 -37 -3 -74 -10 -81 -16 -10 -8 -15 -8 -20 0 -4 7 -16 10 -26 7 -11 -3
-26 1 -34 10 -13 13 -15 13 -15 -1 0 -11 -9 -16 -32 -15 -18 0 -55 0 -83 0
-61 -1 -104 4 -112 13 -3 3 -12 1 -20 -5 -10 -9 -13 -8 -13 2 -1 10 -4 9 -14
-3 -7 -10 -16 -15 -19 -11 -4 3 -20 6 -37 5 -16 0 -30 4 -30 9 0 6 -9 4 -21
-4 -16 -12 -29 -13 -56 -5 -19 5 -37 7 -41 4 -3 -3 -11 -1 -19 6 -10 8 -20 8
-38 -2 -20 -11 -30 -11 -48 -1 -18 10 -28 9 -52 -3 -28 -15 -31 -14 -45 4 -11
14 -22 18 -39 13 -20 -5 -23 -3 -18 10 7 18 -8 33 -18 17 -3 -5 -15 -10 -26
-10 -10 0 -19 -4 -19 -10 0 -5 -4 -10 -10 -10 -5 0 -7 7 -4 15 4 9 0 15 -9 15
-8 0 -18 -6 -20 -12 -4 -8 -6 -7 -6 3 -1 9 -8 19 -15 22 -10 4 -14 1 -10 -11
2 -9 -2 -3 -10 13 -13 26 -21 27 -17 2 0 -4 -12 -7 -29 -7 -24 0 -28 3 -23 17
7 17 6 17 -20 0 -32 -21 -47 -22 -47 -2 0 8 -4 15 -10 15 -5 0 -10 -4 -10 -10
0 -15 -16 -12 -34 5 -17 17 -62 20 -71 4 -4 -6 -13 -8 -21 -5 -8 3 -18 -2 -21
-11 -5 -14 -8 -13 -14 5 -5 12 -14 22 -21 22 -9 0 -10 -3 -2 -8 16 -10 13 -41
-3 -35 -7 3 -13 12 -13 20 0 8 -6 13 -12 10 -7 -2 -12 -9 -11 -14 3 -14 -50
-10 -55 5 -5 17 -32 15 -32 -2 0 -21 -38 -8 -45 15 -4 10 -10 19 -15 19 -5 0
-7 -7 -4 -15 5 -11 -1 -15 -18 -15 -13 0 -30 -6 -36 -12 -10 -10 -15 -10 -23
2 -8 11 -12 12 -16 2 -2 -6 -8 -10 -13 -7 -4 3 -13 -2 -20 -10 -16 -19 -30
-19 -30 0 0 8 -10 19 -21 26 -20 10 -21 9 -16 -10 3 -14 0 -21 -9 -21 -8 0
-14 7 -14 15 0 24 -31 31 -46 11 -7 -10 -18 -15 -23 -11 -15 9 -53 -4 -46 -16
9 -14 -17 -10 -37 5 -10 7 -18 24 -18 37 0 13 -4 31 -9 38 -6 10 -8 0 -4 -27z"/>
</g>
</svg>
