<?xml version="1.0" standalone="no"?>
<!DOCTYPE svg PUBLIC "-//W3C//DTD SVG 20010904//EN"
 "http://www.w3.org/TR/2001/REC-SVG-20010904/DTD/svg10.dtd">
<svg version="1.0" xmlns="http://www.w3.org/2000/svg"
 width="800.000000pt" height="800.000000pt" viewBox="0 0 800.000000 800.000000"
 preserveAspectRatio="xMidYMid meet">
<metadata>
Created by potrace 1.16, written by Peter Selinger 2001-2019
</metadata>
<g transform="translate(0.000000,800.000000) scale(0.100000,-0.100000)"
fill="#000000" stroke="none">
<path d="M6118 7635 c-3 -3 -25 -8 -49 -11 -24 -4 -47 -11 -50 -16 -4 -6 -11
-3 -16 7 -8 14 -15 16 -39 8 l-29 -10 40 -12 c22 -7 85 -14 139 -17 56 -3 111
-11 125 -19 46 -24 139 -65 150 -65 6 0 11 -4 11 -10 0 -5 7 -10 15 -10 8 0
24 -9 35 -20 12 -12 33 -20 54 -20 19 0 42 -7 50 -16 9 -9 41 -19 71 -23 30
-4 63 -14 72 -23 11 -9 35 -14 61 -13 23 0 42 -2 42 -5 0 -4 10 -6 23 -6 20 1
22 -4 22 -45 0 -52 17 -79 44 -72 12 3 24 -3 34 -17 12 -17 20 -20 39 -14 12
4 33 7 46 5 21 -2 26 8 25 56 0 6 8 10 19 8 10 -2 21 2 24 10 7 18 81 47 123
47 24 0 30 3 20 9 -8 5 -22 9 -32 9 -10 0 -16 4 -13 9 7 10 -45 21 -134 27
-36 3 -90 12 -121 20 -31 8 -73 14 -93 14 -19 0 -58 9 -86 20 -28 11 -63 20
-78 20 -15 0 -57 11 -94 24 -47 17 -70 20 -77 13 -8 -8 -11 -7 -11 4 0 17 -83
49 -126 49 -12 0 -26 5 -29 10 -3 6 -15 10 -26 10 -11 0 -22 7 -25 15 -4 8
-15 15 -26 15 -10 0 -17 4 -13 9 3 5 0 13 -7 17 -14 9 -103 16 -110 9z"/>
<path d="M3466 7464 c-9 -22 -8 -24 9 -24 11 0 15 -11 15 -39 0 -36 -3 -40
-27 -44 -20 -3 -15 -4 15 -6 l42 -1 0 45 0 45 80 0 80 0 0 -40 0 -40 40 0 40
0 0 40 c0 22 -4 40 -10 40 -5 0 -10 6 -10 14 0 8 -6 16 -14 19 -20 8 -206 -15
-206 -25 0 -4 -4 -8 -10 -8 -5 0 -10 9 -10 20 0 24 -25 27 -34 4z"/>
<path d="M1390 7459 c-41 -4 -91 -9 -110 -12 -19 -4 -82 -11 -140 -18 -111
-12 -270 -51 -307 -75 -12 -8 -27 -14 -32 -14 -17 0 -111 -59 -179 -113 -34
-27 -62 -46 -62 -42 0 4 -6 3 -12 -2 -16 -13 -159 -45 -332 -74 -27 -5 -54
-13 -60 -19 -5 -5 -15 -10 -22 -10 -7 0 -40 -12 -73 -27 l-61 -27 0 -57 0 -57
33 15 c31 16 76 48 108 78 9 8 20 15 26 15 6 0 16 7 23 15 7 9 21 13 31 10 13
-4 19 -1 19 8 0 11 19 13 98 10 123 -4 142 -6 142 -15 0 -5 8 -8 18 -8 14 0
15 -2 2 -10 -11 -7 -5 -10 23 -10 26 0 37 -4 37 -15 0 -17 16 -20 25 -6 3 6
-1 13 -8 18 -8 4 -16 18 -19 31 -6 20 -3 22 38 22 24 0 44 4 44 10 0 5 17 13
38 16 24 4 46 15 57 30 18 25 45 32 45 13 0 -6 6 -17 14 -25 12 -12 21 -10 60
12 25 14 48 33 51 43 6 21 -3 51 -16 51 -5 0 -9 6 -9 13 0 15 55 47 81 47 10
0 19 7 19 15 0 8 9 19 20 25 11 6 20 8 20 5 0 -4 16 3 35 15 29 18 44 21 79
16 32 -5 48 -3 58 8 10 9 20 11 29 5 28 -17 80 -7 110 23 16 16 29 33 29 38 0
5 30 10 67 12 42 2 68 8 71 16 2 7 -4 11 -15 10 -10 -1 -52 -5 -93 -9z"/>
<path d="M3760 7242 c0 -9 -46 -15 -207 -24 -24 -1 -33 -6 -33 -19 0 -9 6 -20
13 -22 13 -6 -56 -12 -88 -8 -91 11 -95 9 -92 -23 1 -17 10 -37 20 -44 15 -12
22 -11 42 2 14 9 25 21 25 26 0 6 28 10 61 10 46 0 65 -4 74 -16 11 -15 14
-15 38 0 18 13 31 15 43 8 9 -5 25 -7 36 -4 13 3 28 -6 47 -27 29 -33 56 -39
82 -18 25 20 76 101 72 115 -3 7 1 10 10 6 9 -3 16 3 20 16 4 17 3 19 -8 10
-17 -14 -75 -4 -75 12 0 6 -9 3 -20 -7 -19 -17 -21 -17 -40 0 -11 10 -20 13
-20 7z"/>
<path d="M2157 7163 c-3 -38 -8 -81 -12 -96 l-8 -28 60 7 c66 7 81 -2 58 -32
-13 -17 -14 -18 -15 -1 0 15 -11 17 -80 17 l-80 0 0 -30 0 -30 83 -2 82 -1
-100 -7 c-55 -4 -112 -3 -128 1 -23 6 -32 3 -57 -24 -25 -27 -32 -30 -40 -17
-8 13 -13 11 -32 -9 -14 -14 -19 -25 -12 -28 15 -5 5 -45 -10 -40 -6 2 -10 11
-8 21 2 9 -1 16 -7 16 -5 0 -11 7 -13 17 -3 15 -4 15 -17 0 -12 -15 -11 -17 3
-17 9 0 16 -7 16 -15 0 -8 -3 -14 -7 -14 -5 1 -23 1 -40 0 -27 -1 -33 -5 -34
-23 0 -20 -2 -19 -16 10 -9 17 -19 32 -23 32 -4 0 -14 -15 -23 -32 l-16 -33 0
38 c-1 26 -5 37 -16 37 -11 0 -15 -11 -15 -39 0 -35 -3 -39 -32 -45 -33 -7
-98 -68 -98 -92 0 -8 -10 -14 -24 -14 -18 0 -26 -7 -31 -27 -6 -25 -8 -26 -19
-12 -10 15 -15 14 -45 -11 -20 -17 -28 -30 -22 -35 16 -9 4 -25 -19 -25 -10 0
-22 -9 -25 -20 -4 -11 -22 -27 -41 -35 -26 -11 -34 -20 -34 -39 0 -15 -8 -30
-20 -36 -11 -6 -24 -29 -30 -53 -17 -67 -28 -86 -55 -99 -37 -17 -35 -68 5
-101 36 -30 45 -29 165 28 69 33 102 57 143 100 28 31 52 60 52 65 0 9 -14 14
-67 25 -42 8 -67 60 -60 123 3 24 11 48 18 52 7 5 62 6 123 3 l111 -6 28 44
c17 27 45 54 71 67 24 13 53 40 67 61 13 22 27 37 31 35 4 -2 9 0 13 6 3 5 1
10 -4 10 -6 0 -11 5 -11 10 0 6 12 9 28 8 17 -2 26 1 24 10 -1 7 9 12 26 12
16 0 37 7 48 15 10 8 29 15 41 15 12 0 24 4 27 8 3 5 29 10 58 11 29 1 56 7
60 14 6 9 8 9 8 -2 0 -13 52 -12 110 3 22 6 23 5 5 -4 -15 -8 -8 -9 30 -4 28
3 60 6 73 6 13 0 22 6 22 17 0 9 9 27 20 41 23 30 26 50 6 50 -8 0 -17 -6 -19
-12 -3 -7 -6 -3 -6 10 -1 12 -7 22 -16 22 -11 0 -15 11 -15 40 0 22 -4 40 -10
40 -5 0 -10 -18 -10 -40 0 -24 -5 -40 -12 -40 -6 0 -3 -6 8 -14 15 -11 16 -17
7 -27 -15 -15 -39 -6 -53 20 -9 17 -8 21 5 21 8 0 15 7 15 15 0 8 -7 15 -15
15 -9 0 -18 7 -21 15 -6 16 -44 21 -44 6 0 -14 -35 -19 -54 -9 -14 8 -15 13
-5 24 8 10 8 14 0 14 -6 0 -11 17 -11 40 0 29 4 40 15 40 11 0 15 -11 15 -39
0 -30 4 -40 19 -44 26 -6 31 0 31 37 0 63 -9 76 -50 76 l-38 0 -5 -67z"/>
<path d="M4115 7196 c-96 -37 -169 -85 -199 -131 l-15 -23 112 -36 c62 -20
121 -44 133 -54 61 -51 65 -114 10 -137 -24 -10 -55 -12 -117 -6 -126 11 -240
0 -274 -27 -15 -12 -46 -27 -69 -33 -22 -6 -54 -24 -71 -39 -18 -18 -50 -33
-80 -40 -33 -7 -57 -20 -71 -37 -14 -17 -32 -26 -57 -28 -20 -2 -37 1 -37 6 0
5 5 9 10 9 6 0 10 11 10 25 0 14 11 47 25 73 14 26 25 56 25 67 0 28 -104 127
-165 158 -27 14 -61 39 -74 57 -21 29 -27 31 -60 26 -111 -18 -120 -18 -170
-1 -41 13 -58 15 -79 6 -15 -6 -76 -22 -136 -36 -126 -30 -130 -32 -196 -90
-28 -25 -55 -45 -59 -45 -19 0 -21 -35 -3 -59 17 -24 62 -147 62 -170 0 -6
-18 -23 -40 -37 -38 -25 -46 -27 -159 -25 -104 1 -124 -1 -160 -20 -26 -13
-52 -19 -68 -16 -15 3 -47 -1 -72 -9 -25 -8 -51 -14 -57 -14 -21 0 -24 30 -8
70 22 54 100 103 169 106 35 1 51 6 53 17 5 23 -112 20 -162 -5 -21 -11 -68
-24 -104 -29 -36 -5 -71 -14 -79 -20 -18 -16 -93 -127 -93 -139 0 -23 44 -32
120 -25 72 6 80 5 116 -19 22 -14 62 -30 89 -37 95 -21 150 -37 205 -59 30
-12 73 -26 95 -31 45 -11 136 -64 149 -87 4 -8 24 -31 42 -50 19 -20 34 -43
34 -52 0 -16 6 -29 64 -128 41 -73 49 -132 17 -132 -22 0 -29 7 -90 84 -40 51
-47 56 -73 50 -37 -8 -68 18 -68 57 0 39 -68 71 -166 77 -72 5 -74 4 -101 -27
-22 -24 -35 -31 -66 -31 -20 0 -54 -7 -74 -15 -34 -14 -35 -16 -19 -33 29 -33
22 -41 -72 -76 -23 -9 -53 -16 -65 -16 -12 0 -33 -7 -45 -16 -21 -14 -23 -14
-32 11 -14 38 -15 37 44 73 60 37 101 77 110 109 6 17 2 22 -16 25 -14 2 -24
12 -28 28 -4 19 -13 26 -39 28 -18 2 -39 -2 -47 -9 -8 -7 -32 -15 -52 -18 -32
-6 -37 -10 -33 -31 1 -13 12 -35 22 -49 29 -37 23 -101 -10 -101 -9 0 -39 23
-66 51 -28 28 -70 61 -95 73 -31 14 -46 28 -48 44 -3 18 -10 22 -42 22 -28 0
-55 -11 -107 -45 -37 -25 -78 -45 -90 -45 -40 0 -135 -43 -145 -66 -9 -19 -75
-54 -103 -54 -6 0 -17 -5 -25 -10 -13 -8 -10 -14 15 -36 l30 -25 -30 5 c-19 3
-48 -3 -74 -15 -24 -10 -47 -19 -53 -19 -5 0 -34 -11 -64 -25 -30 -14 -63 -25
-74 -25 -24 0 -28 -47 -5 -64 10 -7 12 -16 6 -25 -8 -12 -12 -12 -25 -2 -13
11 -24 9 -63 -10 -40 -20 -48 -28 -46 -49 4 -44 -6 -70 -27 -70 -42 0 -52 -75
-22 -174 10 -33 24 -63 32 -66 8 -4 39 -18 68 -31 67 -29 92 -59 92 -110 0
-22 -3 -39 -7 -39 -4 0 -26 10 -50 21 -45 22 -74 22 -205 3 -44 -6 -48 -5 -59
20 -20 43 -49 30 -86 -39 -18 -33 -35 -76 -39 -95 -4 -19 -13 -47 -20 -62 -8
-15 -14 -53 -14 -85 0 -54 2 -60 34 -85 56 -45 93 -111 101 -179 6 -49 4 -64
-9 -77 -14 -14 -10 -18 46 -46 72 -36 89 -57 70 -86 -18 -29 -9 -38 43 -46 49
-7 63 -18 74 -61 11 -42 26 -29 26 23 0 53 22 77 53 58 22 -14 61 -109 62
-150 0 -17 11 -52 25 -77 20 -35 30 -44 45 -40 20 5 24 -2 21 -37 0 -10 1 -11
5 -2 3 6 13 12 23 12 10 0 37 6 62 14 24 8 71 21 104 30 33 10 90 27 127 39
87 28 96 20 73 -55 -15 -45 -16 -74 -10 -162 l7 -107 58 -77 c113 -148 152
-179 256 -202 56 -13 145 1 184 29 55 39 213 101 225 89 3 -2 1 -33 -3 -69 -4
-35 -4 -82 0 -104 4 -22 10 -52 12 -66 2 -15 16 -49 30 -75 28 -53 21 -66 -19
-40 -14 9 -41 16 -59 14 -29 -2 -33 -5 -26 -19 5 -9 7 -19 4 -22 -3 -3 3 -3
15 0 15 4 21 1 21 -11 0 -9 8 -16 20 -16 12 0 32 -12 45 -27 13 -16 25 -23 25
-16 0 7 -8 17 -17 22 -10 6 -13 10 -8 10 17 0 45 -26 45 -42 0 -22 18 -31 35
-17 12 10 15 9 15 -9 0 -12 6 -21 15 -21 8 0 15 -4 15 -10 0 -16 -33 -50 -50
-51 -8 0 -10 -3 -4 -5 18 -7 64 14 64 30 0 14 21 26 46 26 8 0 14 -6 14 -13 0
-8 10 -13 23 -13 17 1 21 -4 19 -21 -2 -16 2 -23 12 -23 9 0 16 7 16 15 0 8 5
15 11 15 5 0 7 -6 3 -12 -6 -10 -4 -10 7 0 18 17 30 15 22 -4 -4 -12 0 -14 21
-8 20 5 26 2 26 -10 0 -10 16 -23 40 -32 22 -9 40 -23 40 -31 0 -11 7 -14 24
-11 15 3 27 0 30 -8 4 -11 11 -11 33 -3 15 6 51 12 78 15 l50 3 -25 -21 c-24
-20 -24 -21 -3 -16 16 4 20 2 16 -8 -3 -8 0 -14 7 -14 6 0 14 9 17 19 6 22 29
35 38 21 4 -6 1 -10 -6 -10 -9 0 -10 -3 -3 -10 7 -7 19 -7 35 -2 19 7 26 5 34
-11 5 -11 17 -23 25 -25 13 -5 13 -3 0 13 -12 15 -12 17 -1 10 8 -4 28 -11 45
-15 22 -4 31 -12 31 -25 0 -14 8 -21 25 -24 14 -1 28 -8 32 -15 6 -8 8 -8 8 2
0 6 7 12 16 12 13 0 14 -3 5 -14 -14 -17 0 -29 23 -20 12 5 16 0 16 -20 0 -30
7 -33 27 -8 8 9 12 12 9 6 -7 -14 18 -37 28 -26 4 4 7 2 6 -3 -7 -31 1 -46 20
-40 13 4 20 2 21 -7 0 -7 4 -3 9 10 5 12 14 22 20 22 13 0 13 -27 0 -35 -14
-9 -12 -22 4 -28 10 -4 13 -1 9 9 -3 7 -1 14 5 14 6 0 12 -6 15 -12 3 -10 9
-10 25 -1 26 15 37 1 22 -26 -15 -28 -13 -31 18 -32 15 0 21 -3 14 -6 -7 -3
-17 -16 -22 -29 -6 -14 -18 -27 -27 -30 -10 -3 -27 -10 -39 -16 -12 -5 -30 -9
-40 -7 -10 1 -27 -1 -36 -6 -10 -4 -26 -4 -35 0 -24 11 -57 14 -63 6 -3 -3
-16 -12 -29 -19 -27 -16 -42 -6 -46 30 -1 13 -3 28 -4 33 -1 6 -11 -1 -22 -14
-27 -32 -32 -22 -11 20 23 45 22 58 -8 78 -22 15 -24 15 -18 -1 5 -12 3 -15
-6 -12 -9 3 -17 -5 -22 -20 -9 -26 -10 -26 -33 -9 l-24 16 24 10 24 10 -22 4
c-26 5 -31 23 -7 23 13 0 14 3 5 13 -6 8 -8 17 -4 20 3 4 1 7 -5 7 -17 0 -53
-38 -41 -44 5 -2 4 -3 -3 -2 -7 1 -15 13 -19 27 -5 21 -7 22 -14 7 -9 -21 -25
-24 -25 -4 0 16 -95 17 -120 1 -24 -15 -40 -14 -40 2 0 17 -35 9 -62 -15 -16
-13 -18 -13 -26 8 -9 23 -9 23 -20 -7 -6 -17 -21 -37 -34 -44 -13 -6 -27 -18
-31 -25 -4 -8 -15 -14 -22 -14 -8 0 -15 -4 -15 -10 0 -5 5 -10 12 -10 6 0 8
-3 5 -7 -4 -3 -2 -12 4 -20 9 -10 8 -13 -1 -13 -6 0 -14 9 -17 20 -3 11 -9 20
-14 20 -5 0 -9 7 -9 16 0 10 -6 14 -15 10 -18 -7 -20 5 -2 23 10 10 8 15 -8
27 -17 13 -18 16 -5 24 13 8 12 10 -3 10 -10 0 -31 13 -47 30 -16 17 -36 30
-45 30 -18 0 -19 5 -5 31 11 19 4 24 -27 20 -7 -1 -13 6 -13 15 0 12 -6 15
-27 10 -27 -5 -27 -5 -5 6 29 14 23 32 -11 36 -15 2 -32 13 -38 24 -10 19 -12
20 -21 5 -5 -10 -16 -17 -24 -17 -8 0 -12 5 -9 10 3 6 2 10 -4 10 -5 0 -12 -4
-15 -9 -3 -5 -19 -11 -36 -13 -22 -3 -30 -1 -30 11 0 12 -5 9 -19 -8 -10 -13
-31 -25 -46 -27 -34 -4 -50 -25 -31 -39 7 -6 17 -21 21 -35 6 -20 5 -23 -6
-12 -21 19 -29 14 -29 -18 0 -17 5 -30 12 -30 9 0 8 -3 -1 -12 -11 -11 -14
-10 -18 0 -3 7 -12 19 -20 27 -11 12 -12 19 -3 29 9 11 7 16 -10 21 -30 10
-34 1 -15 -29 9 -14 14 -30 10 -36 -3 -5 -2 -10 3 -10 15 0 24 -33 12 -40 -8
-5 -6 -12 5 -24 15 -15 15 -16 -1 -16 -13 0 -14 -3 -4 -15 10 -12 9 -16 -5
-21 -10 -4 -15 -14 -12 -25 6 -23 1 -24 -19 -4 -10 10 -11 15 -4 15 9 0 11 23
7 81 -4 64 -10 86 -26 103 -12 13 -18 26 -14 29 3 4 2 17 -4 30 -19 39 -22 56
-11 63 7 4 6 9 -2 14 -7 4 -13 22 -14 39 -1 17 -6 31 -13 31 -7 0 -13 9 -13
20 0 11 7 20 16 20 8 0 12 5 9 11 -4 6 -10 8 -13 4 -3 -3 -20 9 -38 26 -18 17
-37 28 -43 24 -6 -3 -9 -11 -5 -16 3 -5 10 -7 15 -4 5 4 9 2 9 -3 0 -16 -39
-21 -51 -6 -7 8 -30 14 -55 14 -23 0 -46 5 -49 10 -12 20 -27 10 -23 -15 5
-25 -7 -35 -15 -12 -6 17 -45 -18 -50 -47 l-4 -21 -8 23 c-4 12 -13 22 -20 22
-7 0 -15 6 -18 13 -4 9 -7 9 -18 0 -9 -10 -10 -18 -2 -35 6 -13 14 -32 17 -42
6 -16 4 -17 -9 -6 -12 10 -15 9 -15 -5 0 -10 8 -24 18 -32 16 -13 16 -13 -3
-11 -20 3 -21 1 -10 -42 4 -16 0 -33 -9 -45 -16 -20 -16 -20 -22 1 -3 12 -16
27 -29 34 -21 11 -22 14 -9 28 13 13 17 12 28 -3 8 -12 15 -14 20 -7 3 6 2 13
-2 16 -5 3 -8 22 -6 42 2 29 -1 37 -17 41 -11 3 -16 10 -12 17 9 13 12 79 4
70 -5 -5 -27 97 -34 156 -1 14 4 33 11 42 8 10 11 25 8 35 -5 13 -9 14 -15 5
-10 -16 -41 -4 -35 13 3 7 -6 21 -20 30 -14 10 -26 26 -26 36 0 21 -16 34 -25
19 -3 -5 0 -10 7 -10 8 -1 6 -6 -6 -15 -11 -8 -24 -11 -28 -7 -4 4 -24 6 -43
4 -31 -4 -35 -7 -35 -34 0 -23 -4 -29 -15 -24 -9 3 -21 -4 -31 -19 -9 -14 -23
-25 -30 -25 -8 0 -14 -3 -14 -8 0 -4 -11 -19 -24 -33 -16 -18 -21 -30 -15 -40
5 -8 9 -29 9 -48 0 -25 8 -41 34 -65 25 -23 32 -36 26 -46 -7 -12 -12 -12 -28
3 -10 9 -28 17 -40 17 -16 0 -22 6 -22 23 -1 12 -3 47 -5 77 -3 33 0 60 8 69
9 11 9 13 0 8 -8 -5 -11 3 -11 25 0 52 -13 91 -38 116 -25 23 -24 42 1 42 19
0 25 25 11 46 -12 19 -18 58 -19 146 -1 38 -6 49 -24 59 -13 7 -21 14 -18 17
2 2 -6 13 -18 24 -15 13 -18 21 -9 24 25 11 11 23 -26 20 -32 -2 -37 -5 -34
-25 l2 -23 -34 20 -34 20 -6 -36 c-4 -21 -12 -50 -18 -65 -9 -25 -7 -33 21
-72 21 -30 31 -55 30 -77 0 -18 4 -57 9 -86 7 -41 6 -54 -5 -64 -10 -8 -13
-29 -10 -77 3 -44 0 -69 -9 -78 -7 -8 -10 -27 -7 -51 3 -24 1 -42 -6 -46 -6
-4 -11 -18 -11 -32 0 -21 -3 -24 -25 -18 -22 5 -27 1 -40 -30 -14 -33 -14 -39
1 -67 32 -63 64 -162 59 -180 -10 -30 -78 -63 -195 -95 -125 -34 -229 -69
-297 -100 -40 -19 -76 -34 -82 -34 -5 0 -23 -8 -40 -17 l-31 -18 0 -306 0
-306 42 -59 c41 -58 127 -168 164 -210 11 -12 32 -39 49 -60 75 -98 275 -286
435 -410 328 -255 710 -470 1115 -628 218 -84 316 -116 700 -225 39 -11 116
-29 172 -40 56 -12 113 -25 126 -30 25 -10 52 -15 152 -31 89 -14 118 -20 140
-27 11 -4 29 -8 40 -9 38 -3 180 -25 198 -30 27 -8 10 -24 -21 -19 -15 2 -65
7 -112 9 -211 13 -273 20 -390 47 -69 16 -188 41 -265 55 -141 26 -307 69
-400 104 -27 10 -95 30 -150 45 -160 43 -225 65 -315 110 -47 23 -134 61 -195
85 -60 23 -128 50 -150 58 -22 9 -99 49 -171 88 -72 40 -171 92 -220 117 -49
25 -111 62 -139 81 -27 20 -102 71 -165 113 -63 43 -194 143 -290 223 -96 80
-191 157 -210 170 -19 14 -59 47 -87 74 l-53 50 0 -306 c0 -266 2 -307 15
-312 13 -4 14 -10 5 -26 -9 -16 -8 -20 5 -20 8 0 15 -4 15 -10 0 -5 7 -10 15
-10 9 0 20 -11 24 -24 10 -24 36 -40 51 -31 5 3 11 1 15 -5 4 -6 11 -8 16 -5
5 4 12 -1 15 -9 7 -18 34 -22 34 -6 0 6 -7 13 -15 16 -17 7 -11 24 9 24 6 0
12 -12 13 -27 1 -43 14 -73 30 -73 8 0 28 -9 44 -21 16 -11 29 -18 29 -15 0 4
19 -7 42 -24 42 -30 68 -38 68 -20 0 6 7 10 15 10 12 0 13 -4 5 -19 -13 -25
-13 -31 1 -31 7 0 22 11 35 25 25 27 35 32 32 13 -2 -6 6 -14 16 -16 19 -4 46
-25 46 -36 0 -3 -8 -6 -17 -7 -11 0 -13 -3 -5 -6 6 -2 12 -12 12 -21 1 -15 3
-14 15 2 15 19 15 19 15 -3 0 -16 5 -21 14 -18 9 4 16 -5 20 -26 6 -29 7 -30
22 -11 11 13 17 15 20 7 3 -7 17 -13 31 -13 16 0 27 -7 30 -19 5 -19 42 -41
68 -41 8 0 15 -4 15 -10 0 -5 7 -10 15 -10 8 0 23 -8 33 -18 10 -10 26 -21 35
-25 9 -3 17 -13 17 -22 0 -8 4 -15 9 -15 5 0 7 9 4 20 -4 16 0 20 21 20 14 0
25 -3 25 -7 -4 -24 7 -31 63 -43 35 -6 72 -16 83 -20 11 -5 37 -14 58 -20 21
-7 43 -20 50 -31 6 -10 20 -19 29 -19 10 0 18 -7 18 -15 0 -9 9 -15 25 -15 14
0 25 5 25 10 0 6 7 10 15 10 8 0 15 -9 15 -19 0 -26 17 -36 35 -21 8 6 20 8
27 4 7 -4 24 -7 39 -6 19 2 29 -5 37 -23 13 -28 53 -48 77 -38 9 3 22 -2 29
-12 8 -11 20 -16 30 -12 10 4 19 1 23 -9 3 -9 12 -13 21 -9 18 7 82 -13 82
-25 0 -5 7 -7 16 -3 19 7 64 -16 64 -33 0 -14 44 -27 48 -14 2 6 15 10 28 10
14 0 23 -4 19 -9 -8 -14 10 -22 62 -27 26 -3 55 -12 65 -21 11 -10 18 -12 18
-5 0 19 21 14 27 -6 4 -17 11 -18 54 -11 51 8 79 4 79 -12 0 -5 18 -9 39 -9
22 0 41 -5 43 -12 2 -6 20 -12 39 -14 18 -1 59 -8 89 -15 44 -10 400 -14 1713
-16 1007 -2 1657 0 1657 6 0 5 -6 11 -12 14 -7 2 13 2 44 -1 47 -4 59 -1 64
12 4 11 13 15 26 10 12 -3 27 1 39 12 15 13 19 14 19 3 0 -9 6 -7 18 7 22 27
46 35 74 25 14 -5 31 -3 47 6 36 18 101 17 101 -2 0 -8 5 -15 10 -15 6 0 10 7
10 15 0 8 -4 15 -10 15 -5 0 -10 7 -10 15 0 12 4 13 19 3 15 -9 24 -7 46 10
15 12 38 22 51 22 12 0 26 5 29 10 3 6 18 10 32 10 14 0 39 11 55 25 18 16 37
23 48 20 10 -3 25 2 34 11 10 9 20 14 23 10 11 -10 53 36 53 58 0 15 3 17 8 8
7 -9 15 -10 35 -3 15 6 27 8 27 5 0 -3 7 2 16 10 8 9 24 16 34 16 25 0 70 21
70 33 0 5 7 7 15 3 9 -3 23 3 32 14 9 10 21 16 26 13 5 -3 15 4 22 14 8 11 35
26 60 33 25 7 45 17 45 21 0 5 13 9 29 9 16 0 31 6 35 15 3 8 16 15 29 15 14
0 30 7 37 15 7 8 21 15 30 15 10 0 20 3 22 8 2 4 20 15 41 24 20 10 37 24 37
33 0 8 7 15 15 15 8 0 22 11 31 25 9 14 19 23 22 20 3 -3 16 2 29 10 17 12 28
13 43 5 12 -7 20 -7 20 -1 0 5 9 13 20 16 14 5 19 12 15 25 -4 13 1 19 20 24
14 4 25 13 25 21 0 8 8 15 19 15 10 0 24 7 31 15 7 8 22 15 34 15 24 1 56 22
56 37 0 6 9 13 21 16 12 3 18 10 15 16 -4 5 6 11 21 13 20 2 29 9 31 25 4 26
27 36 52 23 15 -8 17 -6 13 9 -4 16 -1 19 16 14 12 -3 21 -1 21 6 0 16 34 48
59 56 12 3 21 11 21 16 0 6 4 8 9 4 5 -3 21 5 35 18 24 23 25 24 26 205 0 100
-2 182 -6 182 -3 0 -28 -21 -54 -47 -85 -83 -95 -91 -155 -122 -32 -17 -71
-42 -86 -56 -16 -14 -32 -25 -35 -25 -4 0 -18 -12 -31 -26 -13 -14 -35 -27
-50 -29 -14 -1 -29 -8 -33 -15 -4 -6 -10 -11 -14 -11 -6 1 -65 -27 -141 -68
-21 -11 -53 -33 -70 -48 -18 -16 -65 -45 -106 -66 -41 -20 -85 -44 -99 -52
-35 -20 -158 -75 -201 -90 -47 -17 -130 -53 -149 -65 -19 -12 -20 -13 -160
-67 -63 -24 -123 -48 -132 -53 -10 -6 -25 -10 -33 -10 -8 0 -23 -4 -33 -9 -9
-5 -37 -16 -62 -24 -25 -8 -124 -42 -220 -76 -96 -33 -215 -67 -265 -76 -49
-9 -94 -17 -100 -19 -11 -3 -15 -4 -185 -45 -127 -31 -289 -56 -415 -66 -220
-16 -255 -17 -255 -7 0 14 25 22 70 22 21 0 42 5 45 10 4 6 10 8 14 6 4 -3 30
-1 57 4 168 31 225 42 274 55 30 7 89 19 130 25 41 7 89 19 107 26 17 8 40 14
51 14 12 0 33 5 49 12 15 6 35 12 43 13 41 6 80 19 80 27 0 5 5 6 10 3 6 -4
18 -1 26 6 8 6 17 9 20 6 4 -3 25 4 48 16 22 12 46 22 51 23 6 0 18 4 27 9 10
4 29 8 43 9 14 0 25 4 25 9 0 4 8 7 18 7 21 0 93 32 113 51 29 27 61 40 99 41
24 0 47 8 59 20 12 10 26 16 31 13 6 -3 10 -1 10 4 0 6 -8 11 -17 12 -10 0 0
6 22 13 29 9 39 17 37 29 -2 12 4 17 20 18 66 5 88 15 88 40 0 17 30 29 30 12
0 -5 4 -14 9 -22 7 -11 18 -7 54 19 27 19 52 30 61 27 9 -4 16 -3 16 2 0 4 33
18 73 30 70 21 97 38 97 61 0 7 8 9 20 5 11 -4 20 -2 20 4 0 6 -5 11 -12 11
-6 0 -9 3 -6 6 4 3 16 0 28 -6 12 -7 20 -8 17 -2 -4 5 6 15 21 22 25 12 26 13
7 21 -16 6 -14 8 13 8 38 1 41 12 7 28 -17 8 -27 8 -32 1 -4 -7 -11 -4 -20 7
-7 11 -13 13 -13 7 0 -7 -5 -12 -10 -12 -6 0 -5 8 2 20 7 10 14 17 17 15 2 -3
10 0 18 7 7 6 16 8 19 5 3 -3 19 -1 35 3 32 10 41 -5 9 -15 -25 -8 -27 -37 -2
-33 39 7 56 62 22 73 -11 3 -20 11 -20 17 0 6 16 -2 35 -16 19 -15 43 -26 52
-24 10 2 17 -2 16 -9 -4 -19 17 -16 24 3 3 9 0 20 -8 26 -11 8 -11 11 -1 15 7
3 24 16 37 29 29 29 38 30 30 4 -5 -16 -2 -20 19 -20 14 0 26 5 26 10 0 6 -7
10 -15 10 -8 0 -15 7 -15 16 0 10 6 14 14 11 10 -4 13 -1 9 9 -4 12 -14 14
-37 10 -17 -4 -39 -7 -49 -7 -9 0 -15 -4 -12 -10 4 -5 1 -9 -6 -9 -8 0 -7 -5
2 -17 13 -15 12 -16 -8 -11 -13 4 -23 2 -23 -4 0 -5 -4 -7 -9 -3 -5 3 -13 1
-16 -5 -5 -8 -11 -7 -21 1 -17 14 -18 29 -1 29 7 0 19 9 27 20 8 11 18 20 23
20 4 0 19 12 32 27 16 20 20 30 12 36 -9 5 -8 11 4 20 17 13 34 55 31 75 -4
17 9 15 24 -5 13 -17 15 -17 28 0 21 27 28 20 11 -13 -9 -17 -22 -30 -29 -30
-16 0 -41 -28 -33 -36 7 -7 42 14 81 48 17 16 37 28 44 28 9 0 11 7 7 20 -4
12 -2 20 5 20 8 0 10 9 6 25 -4 14 -2 25 3 25 6 0 8 7 5 15 -4 10 -2 13 8 10
8 -3 23 3 33 15 18 19 18 20 -1 21 -17 0 -17 1 2 9 14 5 26 25 35 54 7 25 20
47 29 48 12 3 15 18 15 69 0 59 -2 65 -18 61 -12 -3 -20 2 -23 16 -4 12 -12
18 -22 16 -34 -8 -57 27 -57 87 0 50 2 55 17 45 24 -14 34 -1 22 32 -7 20 -18
29 -44 33 -19 4 -29 7 -22 8 30 3 71 81 42 81 -5 0 -8 25 -6 58 3 48 6 57 22
57 10 0 25 4 32 8 20 13 -6 39 -32 32 -15 -5 -17 -4 -8 3 11 7 9 15 -11 36
-13 14 -32 26 -41 26 -9 0 -26 10 -38 22 -18 18 -19 22 -6 32 9 6 16 24 16 39
0 15 7 36 16 46 9 9 16 28 16 41 0 27 69 235 104 313 13 29 43 77 68 107 41
50 95 140 84 140 -2 0 0 16 5 36 8 28 7 41 -6 60 -18 27 -14 60 13 123 8 20
16 56 18 81 1 25 5 70 9 101 7 56 1 80 -31 117 -8 9 -28 34 -45 55 -17 20 -34
37 -39 37 -10 0 -4 -102 17 -295 20 -189 20 -233 -3 -280 -29 -62 -66 -34 -62
49 1 33 -5 55 -24 83 -14 21 -27 59 -30 86 -6 51 -38 97 -67 97 -23 0 -37 12
-45 36 -5 16 0 23 19 32 23 11 25 16 19 47 -4 23 -2 41 7 51 12 14 9 20 -16
40 -45 36 -61 20 -69 -68 -4 -40 -6 -100 -5 -133 1 -34 -3 -71 -10 -83 -9 -16
-9 -32 -1 -60 12 -44 26 -437 16 -476 -8 -34 -23 -33 -31 3 -3 16 -13 32 -22
35 -12 5 -14 15 -9 44 6 39 -11 150 -25 167 -5 5 -9 19 -9 32 0 13 -4 23 -10
23 -5 0 -10 9 -10 20 0 10 -13 33 -29 49 -16 16 -37 50 -46 75 -12 30 -25 48
-41 53 -23 8 -23 9 -9 31 9 12 22 22 29 22 15 0 27 35 20 54 -3 7 -23 13 -45
14 -52 2 -59 7 -59 39 0 48 -19 11 -25 -49 -1 -16 -4 -29 -5 -30 -2 -2 -4 -29
-5 -60 -2 -31 -6 -62 -11 -69 -4 -8 -9 -47 -11 -87 -1 -41 -7 -80 -12 -86 -7
-8 -7 -58 -1 -141 13 -206 8 -425 -11 -452 -18 -26 -29 -21 -29 16 0 14 -7 35
-15 45 -8 11 -15 27 -15 37 0 9 -7 22 -15 29 -13 11 -13 15 -3 22 9 6 5 7 -9
3 -45 -12 -104 82 -68 109 15 11 16 15 2 48 -9 20 -11 41 -7 49 6 8 2 18 -10
26 -11 8 -17 20 -13 28 3 8 -2 26 -11 39 -15 24 -15 25 11 28 15 2 28 8 30 15
3 8 -10 11 -46 8 -28 -2 -51 0 -51 6 0 5 9 9 20 9 15 0 20 7 20 25 0 14 5 25
10 25 6 0 10 6 10 14 0 8 6 17 13 19 8 4 6 6 -4 6 -19 1 -69 45 -69 62 0 6 8
2 18 -9 12 -16 24 -20 45 -15 34 7 30 29 -5 26 -19 -1 -28 6 -39 30 -8 18 -20
31 -27 30 -6 -2 -12 2 -12 7 0 6 5 10 11 10 5 0 7 5 4 11 -4 6 2 5 14 -3 12
-7 21 -18 21 -24 0 -12 22 -24 45 -24 8 0 24 10 37 23 20 20 22 26 10 48 -7
13 -10 40 -8 59 5 29 1 38 -17 49 -54 34 -88 20 -96 -39 0 -5 -17 -10 -37 -10
-31 0 -35 -3 -32 -22 2 -17 -1 -22 -14 -20 -20 3 -25 -14 -5 -21 9 -3 9 -7 0
-19 -7 -8 -10 -17 -7 -20 3 -3 -3 -5 -13 -4 -12 1 -19 -7 -20 -24 -1 -14 -5
-45 -8 -70 -3 -25 -6 -55 -5 -68 0 -13 -4 -42 -9 -65 -7 -29 -6 -45 1 -55 7
-8 8 -16 2 -20 -13 -10 -15 -24 -14 -122 1 -38 -10 -324 -16 -405 -3 -49 -5
-111 -4 -136 1 -54 -17 -75 -56 -65 -18 5 -23 10 -16 19 5 7 9 28 8 47 -1 30
-5 35 -31 40 -25 5 -27 7 -11 13 15 6 18 15 13 48 -6 49 -12 56 -32 39 -8 -7
-15 -9 -15 -5 0 4 10 15 23 26 20 17 21 20 5 29 -10 6 -15 17 -11 26 3 9 0 20
-8 25 -11 7 -12 12 -1 29 8 14 9 20 1 20 -11 0 -8 40 5 72 6 13 0 19 -32 27
-44 12 -70 35 -52 46 6 4 8 15 5 26 -4 11 1 40 11 65 15 40 15 46 1 57 -16 13
-35 63 -21 54 5 -3 14 1 21 8 9 10 8 17 -7 30 -13 12 -18 25 -14 40 4 16 0 24
-14 27 -26 7 -37 48 -12 48 10 0 20 -7 22 -15 3 -14 6 -14 26 1 l23 16 -20 15
c-12 8 -21 23 -21 33 0 10 -4 22 -10 25 -5 3 -10 -2 -10 -11 0 -14 -3 -15 -12
-6 -16 16 -36 15 -54 -3 -21 -21 -34 -19 -34 5 0 11 -4 20 -10 20 -5 0 -10
-12 -10 -26 0 -15 -4 -23 -10 -19 -19 11 -40 -15 -34 -41 4 -15 2 -24 -6 -24
-21 0 -37 -25 -45 -69 -5 -31 -10 -39 -16 -30 -7 11 -9 11 -9 -3 0 -9 4 -19
10 -23 14 -8 2 -32 -19 -38 -19 -5 -27 -57 -10 -57 5 0 9 -10 8 -22 0 -13 -3
-17 -6 -10 -10 24 -23 11 -23 -23 0 -37 -8 -43 -28 -23 -18 18 -27 1 -14 -24
17 -32 36 -62 44 -68 4 -3 3 -12 -2 -20 -6 -8 -10 -32 -10 -52 0 -37 -13 -51
-23 -25 -3 7 -6 5 -6 -5 -1 -10 5 -18 13 -18 9 0 12 -9 9 -32 -3 -18 -5 -41
-5 -50 1 -11 -7 -18 -19 -18 -10 0 -19 -6 -19 -14 0 -8 -12 -17 -26 -20 -21
-6 -24 -9 -14 -21 7 -8 20 -15 30 -15 20 0 33 -31 30 -70 -2 -27 -20 -54 -20
-30 0 7 -2 11 -5 8 -3 -2 0 -19 6 -37 9 -24 9 -35 0 -44 -15 -15 -14 -36 3
-53 9 -8 12 -23 8 -36 -5 -19 -7 -20 -10 -5 -4 19 -10 21 -31 8 -11 -7 -10
-11 5 -19 15 -9 17 -13 7 -23 -11 -11 -13 -10 -13 4 0 15 -11 22 -32 18 -5 0
-8 8 -8 18 0 11 -4 23 -10 26 -18 11 -10 26 21 37 20 7 27 14 21 20 -5 5 -8
27 -5 48 5 36 4 37 -23 36 -25 -1 -29 2 -26 24 2 17 -6 34 -23 50 -26 25 -36
51 -10 30 21 -18 58 9 42 31 -17 22 -43 29 -56 16 -14 -14 -23 -4 -15 17 4 11
14 16 24 13 13 -3 16 0 13 14 -8 31 43 25 72 -8 24 -27 24 -27 25 -6 0 15 -10
28 -31 38 -17 9 -28 19 -25 22 11 11 -15 43 -34 43 -11 0 -20 7 -20 15 0 9 -7
18 -15 21 -8 4 -15 11 -15 16 0 6 6 8 14 5 8 -3 22 1 33 8 17 14 17 14 -2 15
-20 1 -20 1 -1 15 11 8 14 15 8 15 -7 0 -12 9 -12 19 0 11 -5 23 -10 26 -6 4
-8 11 -4 16 3 5 10 7 15 4 5 -4 9 3 9 14 0 11 -5 23 -11 27 -8 4 -7 9 2 15 11
7 11 9 -1 9 -8 0 -22 5 -30 10 -13 9 -13 11 0 20 11 7 11 10 2 10 -7 0 -31 18
-53 40 -39 38 -69 51 -69 30 0 -5 -7 -10 -15 -10 -8 0 -15 6 -15 13 0 7 -7 22
-16 33 -8 10 -13 14 -10 9 2 -6 1 -17 -4 -25 -7 -12 -10 -12 -16 3 -3 9 -12
17 -20 17 -8 0 -14 6 -15 13 0 6 -6 -4 -14 -23 -7 -21 -18 -34 -26 -31 -32 8
-59 8 -59 0 0 -5 5 -9 10 -9 6 0 10 -4 10 -10 0 -5 -7 -10 -15 -10 -9 0 -15
-9 -15 -25 0 -19 -5 -25 -21 -25 -17 0 -20 -5 -17 -25 3 -14 0 -33 -7 -42 -7
-9 -10 -24 -7 -31 3 -8 -2 -19 -12 -24 -9 -5 -14 -13 -11 -18 3 -5 1 -11 -5
-15 -5 -3 -10 -18 -11 -33 0 -15 -3 -21 -6 -14 -6 16 -24 16 -20 0 1 -7 8 -19
15 -26 15 -16 15 -29 2 -37 -6 -3 -7 1 -4 10 7 16 -6 14 -54 -11 -19 -10 -20
-13 -7 -24 8 -7 13 -16 10 -20 -3 -4 4 -10 15 -13 25 -6 37 -36 20 -47 -7 -4
-9 -13 -6 -19 4 -6 2 -11 -3 -11 -6 0 -11 -9 -11 -19 0 -24 -26 -51 -48 -50
-14 0 -14 2 -2 6 20 8 39 34 40 53 0 20 -39 23 -47 4 -3 -9 -16 -13 -34 -12
-33 3 -40 28 -8 28 20 0 21 4 15 46 -3 25 -2 43 3 40 15 -9 22 55 9 72 -10 11
-10 16 -2 19 13 4 7 43 -7 43 -5 0 -9 -11 -9 -24 0 -35 -12 -38 -39 -10 -15
16 -20 30 -16 44 4 13 2 20 -7 20 -20 0 -37 -20 -32 -35 3 -7 1 -16 -5 -19 -6
-4 -8 -13 -5 -20 3 -8 -4 -16 -15 -19 -12 -3 -21 -1 -21 5 0 6 -7 8 -15 4 -8
-3 -15 -1 -15 4 0 6 5 10 10 10 6 0 10 7 10 15 0 8 -7 15 -15 15 -17 0 -20 16
-5 25 12 7 4 25 -11 25 -5 0 -9 -7 -9 -16 0 -11 -6 -15 -20 -11 -11 3 -23 1
-26 -4 -10 -16 -31 9 -31 36 0 23 7 28 45 24 4 0 6 -9 5 -20 -2 -10 2 -19 8
-19 5 0 8 4 5 8 -3 5 1 20 8 34 13 24 12 27 -5 31 -10 3 -19 10 -19 15 0 6 9
8 20 5 14 -4 20 0 20 11 0 9 -5 16 -11 16 -5 0 -7 -4 -4 -10 9 -14 -9 -12 -23
2 -10 10 -15 10 -21 -1 -6 -9 -11 -10 -15 -2 -5 8 -13 8 -26 1 -27 -14 -48 13
-29 38 8 9 19 20 24 24 6 5 4 8 -6 8 -20 0 -39 -20 -39 -42 0 -10 -4 -18 -10
-18 -5 0 -10 -5 -10 -11 0 -6 9 -8 20 -4 16 5 20 2 20 -15 0 -12 4 -19 8 -16
15 9 31 -10 26 -31 -8 -28 -44 -19 -44 11 -1 20 -1 20 -15 2 -14 -18 -15 -18
-26 8 -10 22 -17 25 -43 21 -22 -4 -27 -3 -16 4 20 13 9 22 -18 14 -12 -3 -22
-11 -22 -18 0 -16 25 -26 45 -19 22 9 19 -22 -5 -46 -12 -12 -26 -18 -31 -14
-8 4 -9 -1 -4 -17 6 -20 5 -22 -6 -11 -16 14 -55 16 -64 2 -3 -5 1 -23 11 -39
16 -27 16 -30 0 -52 -9 -13 -16 -34 -16 -46 0 -13 -4 -23 -10 -23 -5 0 -9 -5
-7 -11 1 -6 -3 -14 -10 -16 -9 -3 -11 7 -9 31 2 34 1 35 -15 20 -13 -12 -16
-22 -9 -39 6 -17 5 -27 -5 -35 -26 -22 -28 -49 -4 -69 l23 -18 -32 5 c-29 4
-32 8 -32 38 0 18 5 36 10 39 17 10 11 24 -9 22 -15 -1 -18 -8 -16 -34 1 -19
-2 -36 -6 -39 -5 -3 -9 6 -9 20 0 14 -4 27 -10 31 -5 3 -7 12 -4 20 4 10 -4
18 -22 26 l-29 11 25 20 c24 19 24 19 31 0 11 -30 30 -37 45 -17 12 16 12 21
-1 35 -16 18 -85 16 -97 -4 -5 -7 -8 -4 -8 7 0 9 -11 23 -25 29 -19 9 -22 14
-14 25 10 11 8 12 -6 7 -10 -4 -21 -1 -26 7 -13 21 -11 35 3 21 17 -17 39 -15
32 3 -4 10 0 15 15 15 22 0 28 14 11 25 -19 12 -85 13 -97 3 -18 -15 -16 3 3
31 14 19 14 25 3 32 -13 8 -45 13 -76 12 -7 -1 -13 3 -13 7 0 5 -9 6 -20 3
-11 -3 -17 -9 -14 -14 3 -5 10 -7 15 -4 5 4 9 1 9 -4 0 -6 -6 -11 -13 -11 -7
0 -18 -10 -25 -21 -10 -16 -17 -18 -25 -10 -8 8 -6 15 5 28 16 19 14 83 -3 83
-5 0 -9 3 -9 8 0 12 50 31 66 25 9 -3 14 2 14 16 0 22 -20 20 -50 -4 -8 -7
-28 -11 -44 -9 -25 3 -27 1 -14 -14 8 -9 18 -24 22 -32 7 -13 6 -13 -6 0 -7 8
-22 14 -33 14 -11 -1 -33 -2 -49 -3 l-30 -1 22 -20 c26 -24 31 -80 7 -80 -9 0
-15 -10 -15 -26 0 -20 4 -25 16 -20 9 3 12 2 9 -5 -4 -6 -13 -8 -21 -5 -16 6
-36 -26 -32 -52 2 -9 -2 -16 -8 -15 -7 1 -20 -7 -29 -17 -19 -21 -45 -27 -45
-11 0 5 8 12 18 16 15 7 13 9 -8 15 -28 7 -48 -13 -33 -33 14 -18 10 -30 -14
-54 -17 -17 -23 -19 -27 -7 -4 9 -15 13 -31 10 -13 -3 -27 0 -30 5 -4 5 3 9
14 9 12 0 21 5 21 10 0 6 -7 10 -15 10 -8 0 -24 9 -35 20 -11 11 -24 20 -30
20 -5 0 -12 11 -16 25 -5 20 -9 23 -20 14 -11 -9 -14 -8 -14 4 0 8 -8 14 -17
13 -9 0 -22 10 -29 22 -6 13 -17 29 -23 35 -16 16 -14 30 4 23 9 -3 15 0 15
10 0 10 -7 13 -25 8 -21 -5 -25 -3 -25 15 0 12 -4 21 -10 21 -5 0 -7 7 -3 16
3 8 11 13 17 11 15 -6 56 10 56 22 0 5 -9 7 -20 4 -11 -3 -20 0 -20 6 0 6 4
11 9 11 5 0 12 13 16 30 4 16 11 30 17 30 12 0 38 -26 38 -39 0 -25 24 -20 55
13 27 29 36 34 47 23 18 -17 73 -21 99 -6 18 9 24 8 31 -5 13 -22 25 -20 32 7
4 14 9 18 13 11 5 -6 21 -14 37 -18 17 -4 35 -15 42 -24 19 -26 29 -6 10 22
-9 14 -16 34 -16 44 0 16 6 19 30 17 38 -3 44 -9 25 -25 -23 -19 -18 -31 11
-24 23 6 25 4 19 -15 -5 -16 -2 -21 10 -21 13 0 16 6 11 26 -6 24 -6 25 31 18
21 -4 44 -11 52 -17 10 -8 16 -7 25 3 16 21 59 19 62 -4 3 -24 16 -34 21 -19
3 8 15 11 31 7 23 -4 24 -4 9 6 -26 17 2 41 39 33 16 -3 37 -6 47 -7 10 -1 25
-10 35 -20 14 -14 15 -18 3 -25 -9 -6 -10 -11 -2 -15 19 -12 33 5 26 31 -6 24
-5 25 30 19 20 -4 35 -3 35 3 0 5 3 17 7 27 5 13 3 16 -10 11 -9 -3 -17 -2
-17 2 0 11 77 19 92 10 14 -9 49 1 42 12 -3 5 2 6 12 2 14 -5 13 -8 -7 -19
l-24 -12 28 -7 c15 -4 27 -12 27 -19 0 -6 11 -11 25 -11 21 0 25 4 21 21 -7
25 23 72 34 54 4 -7 13 -9 19 -5 9 5 8 13 -3 29 -12 19 -12 23 -1 23 8 0 20
-14 26 -31 9 -23 13 -27 16 -13 4 15 22 22 48 17 6 -1 4 4 -2 11 -20 20 -16
49 7 49 11 0 20 -4 20 -10 0 -5 4 -10 10 -10 5 0 7 7 4 15 -4 8 -1 15 6 15 6
0 14 -9 17 -19 7 -28 33 -31 66 -8 19 13 26 25 23 36 -5 14 -5 14 6 0 14 -17
58 -20 58 -4 0 5 4 4 9 -3 4 -7 14 -14 22 -15 8 -2 20 -6 27 -11 9 -5 15 -1
19 13 3 12 9 21 14 21 5 0 9 7 9 16 0 10 6 14 14 11 8 -3 31 -9 50 -13 32 -5
36 -4 36 15 0 20 -12 26 -52 22 -10 -1 -18 4 -18 11 -1 9 -5 7 -14 -4 -9 -12
-16 -14 -23 -7 -13 13 -136 13 -183 -1 -52 -15 -120 -13 -126 4 -6 16 17 66
54 114 67 88 68 302 1 382 l-21 25 6 -27 c7 -30 -10 -38 -32 -16 -9 9 -12 8
-12 -5 0 -9 5 -16 11 -14 6 1 15 -7 19 -19 7 -17 5 -20 -13 -18 -12 1 -24 3
-27 5 -3 1 -12 3 -20 3 -8 1 -14 7 -13 14 2 7 -1 12 -6 12 -5 0 -12 13 -16 29
-4 20 -13 30 -30 34 -30 5 -34 1 -28 -24 4 -14 11 -18 24 -14 13 5 19 1 19
-10 0 -26 -27 -29 -56 -6 -20 15 -30 18 -35 10 -4 -8 -9 -5 -13 8 -5 15 -23
24 -66 35 -32 8 -56 10 -53 5 3 -5 -3 -7 -13 -5 -11 2 -18 11 -16 21 3 20 -24
24 -31 5 -2 -8 -8 -9 -13 -4 -5 5 -4 11 4 13 6 3 12 11 12 19 0 8 10 18 21 22
20 8 20 10 5 24 -9 9 -16 19 -16 22 0 8 78 16 195 21 140 5 195 -11 234 -69
35 -52 51 -75 81 -114 24 -32 238 -235 344 -325 31 -27 56 -54 56 -60 0 -11
54 -50 70 -52 3 0 15 -6 28 -13 14 -8 22 -9 22 -2 0 5 -7 10 -16 10 -8 0 -12
5 -9 10 3 6 -4 10 -16 10 -22 0 -22 0 -3 19 10 10 21 16 24 14 5 -4 6 -8 9
-33 0 -5 10 -10 22 -10 15 0 19 5 15 15 -12 34 92 82 153 70 21 -4 61 35 61
59 0 19 118 117 153 127 53 16 127 1 158 -32 36 -38 49 -37 49 5 l0 35 55 -3
c58 -4 80 9 52 29 -10 7 -17 15 -17 19 0 11 35 7 48 -6 9 -9 12 -9 12 0 0 15
56 16 66 1 4 -7 21 -9 40 -6 19 3 34 3 34 -1 0 -4 11 -12 25 -19 14 -6 25 -7
25 -3 0 23 -14 40 -33 40 -16 0 -18 3 -9 12 9 9 15 9 24 0 17 -17 55 -15 62 4
8 21 8 26 -1 21 -7 -5 -8 13 -4 72 0 11 11 21 26 25 15 4 25 13 25 25 0 10 9
21 20 24 21 5 28 43 10 49 -7 2 -7 13 0 33 5 17 12 60 16 98 3 37 10 65 14 62
16 -10 38 39 44 99 4 33 22 95 41 139 19 44 35 95 35 113 0 18 5 36 10 39 26
16 -1 197 -47 312 -35 86 -45 99 -89 115 -19 6 -36 20 -40 30 -3 10 -10 18
-15 18 -14 0 -11 -28 4 -37 26 -15 47 -57 37 -73 -7 -11 -12 -12 -21 -3 -16
16 -39 5 -39 -17 0 -50 -53 -12 -77 55 -11 33 -11 33 20 31 22 -1 32 4 35 17
2 12 -3 17 -18 17 -13 0 -24 8 -27 20 -3 11 -12 20 -19 20 -8 0 -14 4 -14 8 0
5 -17 16 -39 25 -46 21 -131 84 -131 98 0 6 5 7 10 4 6 -3 10 -1 10 5 0 6 -12
16 -26 22 -41 19 -69 107 -29 92 8 -3 20 4 27 15 17 27 32 27 47 -2 7 -13 27
-31 45 -41 19 -10 43 -31 55 -47 12 -16 32 -36 45 -45 22 -14 27 -14 55 0 17
9 55 16 90 16 73 0 85 -14 95 -104 4 -32 11 -66 16 -77 6 -10 11 -31 13 -46 4
-41 31 -76 79 -103 24 -13 66 -47 93 -75 42 -44 60 -54 105 -64 31 -7 78 -9
113 -5 52 6 64 12 99 48 58 59 71 91 64 144 -5 38 -3 49 15 69 21 21 21 26 10
93 -6 39 -9 81 -5 94 3 13 -1 40 -10 60 -12 28 -21 36 -41 36 -14 0 -28 -7
-31 -15 -4 -10 -15 -12 -37 -8 l-32 6 18 -26 c22 -34 22 -39 -5 -35 -16 2 -26
13 -33 36 -6 21 -14 31 -23 27 -7 -2 -15 2 -18 9 -16 41 -103 39 -180 -5 -38
-21 -69 -25 -79 -9 -3 5 -1 28 5 50 9 33 21 47 58 71 45 29 50 30 146 27 l100
-3 7 29 c14 50 0 87 -39 103 -28 12 -40 12 -58 2 -28 -14 -54 -6 -61 21 -3 11
-13 22 -23 25 -27 9 -72 73 -90 130 -20 59 -57 89 -124 99 -45 7 -86 41 -86
71 0 7 -9 24 -21 39 -16 21 -29 26 -63 26 -44 0 -71 20 -109 82 -15 24 -22 26
-60 23 -39 -4 -47 -1 -76 29 -18 19 -62 46 -99 60 -37 15 -80 34 -95 42 -52
26 -56 21 -50 -61 l6 -75 -29 0 c-30 1 -74 30 -74 50 0 8 -13 9 -43 5 -38 -6
-47 -3 -90 30 -26 20 -47 40 -47 45 0 17 -26 11 -44 -9 -10 -11 -15 -25 -11
-30 12 -21 -3 -11 -38 24 -23 23 -44 35 -63 35 -21 0 -41 14 -78 54 -44 47
-131 100 -154 94 -4 -1 -17 1 -29 6 -19 6 -21 12 -16 37 5 28 4 30 -18 27 -21
-3 -24 -8 -23 -40 1 -45 -18 -50 -61 -16 -21 16 -44 22 -97 24 -82 4 -88 7
-88 42 0 36 105 128 156 138 69 13 161 -4 242 -45 43 -21 89 -41 105 -45 15
-3 44 -21 65 -40 40 -35 161 -106 181 -106 7 0 39 -16 71 -36 33 -20 73 -37
92 -37 28 -2 33 2 36 23 2 14 12 34 22 45 9 11 20 35 23 53 6 28 3 34 -16 41
-13 5 -38 33 -56 63 -20 32 -45 59 -63 67 -27 12 -44 39 -54 85 -12 61 -75 88
-210 92 -44 1 -90 7 -102 13 -34 18 -27 54 18 101 l41 42 -33 24 c-17 13 -35
24 -38 24 -3 0 -23 16 -43 35 l-37 35 -108 0 c-116 0 -132 6 -132 49 1 69 20
85 122 95 42 4 78 1 129 -14 95 -26 128 -47 167 -105 32 -47 37 -50 100 -63
37 -8 82 -23 100 -34 l34 -21 66 34 c53 26 82 34 141 37 142 8 235 -41 286
-150 28 -60 30 -76 13 -113 -19 -41 -50 -32 -103 29 -62 73 -106 90 -205 81
-90 -8 -140 -27 -140 -52 0 -49 116 -178 194 -216 31 -16 78 -50 103 -77 43
-45 73 -62 73 -42 1 25 40 146 54 167 21 32 62 33 131 2 82 -36 112 -58 135
-99 24 -42 72 -78 105 -78 31 0 117 -44 158 -80 20 -17 46 -52 56 -76 12 -26
30 -49 45 -56 14 -6 26 -14 26 -17 0 -4 26 -20 58 -36 31 -17 59 -32 62 -35
17 -17 130 -90 139 -90 6 0 11 -4 11 -8 0 -4 30 -28 68 -52 37 -24 76 -53 87
-63 11 -10 32 -25 48 -33 15 -8 27 -19 27 -24 0 -6 5 -10 12 -10 6 0 26 -11
44 -25 18 -14 37 -25 43 -25 6 0 11 -7 11 -15 0 -9 8 -18 18 -22 9 -3 29 -19
43 -35 14 -15 29 -28 33 -28 5 0 17 -11 28 -25 11 -14 25 -25 31 -25 6 0 31
-19 54 -42 l43 -42 0 306 c0 297 -1 307 -20 313 -11 4 -23 20 -28 38 -6 22
-15 33 -30 35 -12 2 -22 -1 -22 -7 0 -6 -7 -11 -15 -11 -8 0 -15 5 -15 10 0 6
5 10 10 10 16 0 12 46 -5 60 -18 15 -20 0 -2 -20 10 -12 9 -12 -4 -2 -9 6 -19
9 -22 5 -4 -3 -7 8 -7 25 0 20 6 32 18 36 14 4 14 5 -3 4 -61 -1 -95 3 -95 13
0 8 13 9 40 5 25 -4 40 -2 40 4 0 5 -13 10 -28 10 -16 0 -42 11 -58 25 -16 14
-39 25 -51 25 -14 0 -23 6 -23 15 0 11 -11 15 -40 15 -29 0 -40 4 -40 15 0 8
-9 15 -19 15 -11 0 -36 10 -57 22 -32 19 -34 23 -20 33 9 7 16 19 16 28 0 12
-9 14 -42 11 -25 -3 -36 -1 -26 3 15 7 15 9 -1 29 -9 12 -27 25 -39 28 -12 4
-22 15 -22 25 0 23 -26 48 -32 30 -2 -7 -18 -4 -49 10 -25 12 -65 25 -90 30
-24 5 -34 9 -22 10 16 1 20 6 16 21 -6 24 -11 25 -35 3 -17 -15 -19 -15 -38 2
-11 10 -20 26 -20 37 0 10 -4 18 -10 18 -5 0 -10 -6 -10 -14 0 -14 -21 -26
-46 -26 -8 0 -14 9 -14 20 0 17 -7 20 -39 20 -22 0 -42 5 -44 13 -4 10 -6 10
-6 0 -1 -18 -21 -16 -21 2 0 18 -20 20 -20 3 0 -8 -7 -4 -15 7 -9 10 -28 19
-43 20 -22 0 -27 4 -25 23 3 19 0 21 -16 12 -24 -12 -44 -13 -37 -1 8 12 -39
31 -62 24 -14 -3 -24 2 -32 17 -6 11 -19 20 -28 19 -9 -1 -34 -1 -54 0 -31 1
-38 5 -38 22 0 19 -1 19 -16 5 -19 -19 -29 -20 -46 -3 -15 15 -63 35 -98 42
-35 7 -108 34 -92 35 28 1 9 28 -28 40 -24 8 -40 20 -40 29 0 11 -3 10 -14 -5
-14 -18 -15 -18 -22 -1 -3 10 -14 17 -23 16 -50 -5 -71 2 -71 21 0 18 -5 20
-39 14 -48 -8 -141 12 -158 33 -9 12 -23 14 -55 10 -23 -3 -36 -2 -29 2 16 10
-8 21 -45 21 -15 0 -24 6 -24 15 0 12 -17 15 -82 17 -46 1 -64 3 -40 5 23 2
42 9 42 15 0 10 -67 6 -107 -7 -15 -5 -27 -1 -42 14 -23 23 -86 29 -94 9 -4
-10 -8 -10 -15 0 -5 8 -22 12 -39 11 -18 -2 -37 3 -47 14 -19 19 -36 22 -36 8
0 -9 25 -41 65 -82 8 -8 18 -37 21 -62 12 -85 -39 -107 -105 -46 -18 16 -43
32 -56 35 -51 13 -179 -2 -239 -27 -51 -20 -63 -30 -83 -69 -12 -25 -28 -78
-34 -119 -10 -66 -9 -76 5 -86 24 -18 20 -23 -16 -21 -28 2 -33 6 -31 25 3 21
0 22 -42 15 -30 -4 -45 -3 -45 5 0 6 -6 11 -14 11 -7 0 -19 7 -26 15 -7 8 -23
15 -35 15 -26 0 -43 18 -54 56 -5 19 -17 31 -37 37 -16 5 -49 29 -74 53 -43
41 -49 43 -145 58 -55 8 -108 18 -117 21 -50 19 15 101 102 130 37 12 71 15
125 12 41 -3 77 -2 80 2 2 5 -39 37 -91 71 -142 93 -225 109 -339 66z m72
-552 c32 -23 83 -116 83 -151 0 -37 -42 -30 -74 12 -32 41 -60 45 -87 11 -25
-31 -76 -38 -147 -20 -31 9 -70 13 -87 11 -37 -6 -65 8 -65 31 0 46 70 96 152
108 23 4 50 11 58 16 27 16 137 4 167 -18z m-734 -201 c36 -11 67 -33 118 -83
71 -70 80 -88 54 -110 -17 -14 -49 -10 -115 15 -53 20 -90 12 -179 -38 -52
-29 -62 -31 -137 -29 -49 2 -85 -1 -89 -7 -4 -7 -15 -5 -32 6 -14 10 -33 18
-41 20 -9 1 -19 9 -24 17 -7 12 -19 15 -46 10 -26 -4 -48 1 -77 15 -21 12 -52
21 -67 21 -33 0 -39 29 -10 58 22 22 55 32 277 86 196 47 266 51 368 19z
m1148 -59 c52 -9 115 -27 141 -40 26 -13 53 -24 61 -24 7 0 30 -9 52 -20 22
-11 52 -20 68 -20 43 0 79 -41 75 -88 -3 -34 -7 -38 -45 -51 -39 -14 -44 -14
-93 12 -60 31 -72 33 -104 12 -18 -12 -29 -13 -54 -4 -26 9 -32 16 -32 41 0
16 -4 27 -9 24 -5 -3 -7 -15 -4 -26 15 -57 -84 -16 -105 44 -11 31 -15 34 -32
24 -14 -9 -21 -8 -35 5 -33 34 -55 40 -95 27 -28 -9 -42 -9 -58 -1 -26 14 -39
56 -22 76 22 27 161 31 291 9z m-234 -159 c29 -19 93 -75 142 -125 74 -73 91
-96 91 -120 0 -24 8 -35 40 -55 32 -20 40 -31 40 -55 l0 -30 -64 5 c-50 4 -76
13 -114 38 -60 38 -66 50 -48 85 20 38 5 63 -36 60 -24 -2 -36 5 -60 35 -28
34 -32 36 -47 23 -15 -14 -21 -12 -60 19 -24 19 -51 35 -61 35 -14 0 -16 -7
-10 -46 7 -46 -7 -134 -22 -134 -4 0 -8 -9 -8 -19 0 -31 -17 -34 -55 -11 -40
25 -58 51 -49 74 7 18 -12 46 -30 46 -6 0 -22 -9 -36 -20 -21 -16 -23 -21 -11
-32 10 -10 15 -10 18 -1 5 13 33 6 33 -9 0 -5 -4 -6 -10 -3 -5 3 -10 2 -10 -3
0 -16 -67 -12 -81 4 -11 13 -9 19 10 34 16 11 20 20 13 24 -16 10 -46 -8 -66
-39 -12 -18 -25 -25 -49 -25 -18 0 -41 -6 -52 -14 -30 -20 -93 -27 -102 -11
-14 23 -40 21 -87 -9 -46 -29 -46 -29 -30 -54 20 -30 6 -43 -40 -35 -23 4 -36
-1 -50 -16 -11 -12 -25 -21 -33 -21 -8 0 -32 -9 -55 -21 -29 -15 -50 -19 -74
-14 l-34 6 6 -45 c6 -37 4 -45 -12 -50 -28 -8 -103 0 -154 18 -49 17 -64 11
-75 -31 -3 -15 -17 -39 -29 -54 -17 -20 -26 -46 -31 -94 -4 -37 -4 -69 -1 -73
4 -3 19 1 34 10 16 9 53 20 83 24 29 4 62 11 73 16 10 6 58 18 107 28 97 20
147 14 171 -19 7 -9 21 -20 31 -24 9 -3 17 -13 17 -20 0 -15 -92 -33 -111 -22
-14 10 -90 -5 -83 -16 3 -5 14 -9 25 -9 28 0 19 -24 -11 -28 -12 -2 -26 1 -30
7 -4 8 -19 7 -49 -4 -24 -8 -56 -15 -72 -15 -36 0 -38 -17 -4 -26 37 -9 30
-30 -15 -48 -50 -20 -69 -20 -91 0 -15 14 -20 14 -50 0 -19 -9 -46 -25 -62
-38 -25 -20 -30 -21 -62 -9 -34 12 -38 11 -73 -18 -60 -51 -123 -105 -138
-119 -36 -35 -135 -42 -161 -12 -10 11 -23 20 -29 20 -7 0 -15 14 -19 30 -13
60 68 145 114 121 17 -9 22 -7 33 16 18 38 58 56 93 43 23 -9 32 -7 47 7 11
10 41 29 66 43 44 23 47 28 50 69 3 36 -2 50 -26 80 -53 67 -54 71 -22 137 17
32 30 68 30 78 0 25 28 56 51 56 10 0 42 -10 71 -21 31 -13 78 -22 112 -23 58
-1 59 -1 112 51 29 29 61 53 69 53 16 0 102 32 138 51 10 6 37 20 60 31 23 12
53 31 67 43 28 24 147 95 160 95 4 0 31 20 58 46 l51 45 103 -4 c67 -3 115
-11 138 -22 45 -21 90 -8 90 28 0 26 17 52 40 60 8 3 47 6 85 6 64 1 75 -2
122 -34z m1120 -323 c69 -32 195 -118 267 -183 28 -25 71 -58 96 -72 30 -18
53 -41 69 -72 20 -37 29 -45 52 -45 30 0 66 -40 54 -59 -3 -6 3 -21 14 -33 12
-12 21 -28 21 -35 0 -19 -28 -27 -45 -13 -8 7 -26 10 -40 6 -20 -5 -33 1 -65
33 -22 21 -40 44 -40 51 0 12 5 11 68 -6 25 -7 31 16 9 34 -17 14 -89 4 -100
-15 -15 -24 -38 -13 -55 26 -16 38 -42 56 -108 75 -12 4 -27 20 -34 36 -6 16
-26 39 -44 51 -18 12 -42 39 -54 59 -20 35 -25 38 -75 42 -35 3 -64 12 -82 26
-35 28 -84 28 -127 2 -42 -25 -64 -25 -78 -1 -13 25 2 66 36 102 24 25 29 26
113 23 70 -3 101 -10 148 -32z m-3647 -295 c19 -10 25 -20 25 -47 0 -34 -1
-35 -37 -33 -21 1 -51 9 -66 17 -38 20 -95 6 -129 -30 -17 -18 -28 -24 -31
-16 -6 18 -36 15 -61 -7 -13 -11 -28 -22 -34 -24 -12 -4 -1 -27 14 -27 5 0 9
6 9 14 0 26 21 29 44 7 l21 -22 -28 -25 c-30 -26 -57 -30 -88 -13 -17 8 -31 5
-75 -17 -30 -15 -54 -33 -54 -41 0 -18 20 -16 42 4 17 15 18 15 18 -14 0 -38
-21 -57 -63 -55 -25 1 -44 -9 -87 -49 -30 -27 -56 -45 -58 -39 -6 16 -38 12
-53 -7 -13 -16 -12 -17 4 -4 16 12 20 12 34 -2 14 -14 14 -18 -6 -46 -19 -26
-29 -31 -64 -31 -31 0 -45 -5 -55 -20 -9 -16 -19 -19 -40 -14 -15 4 -32 11
-38 15 -6 5 -13 7 -16 4 -9 -10 -25 19 -37 69 -10 41 -10 52 3 64 22 22 121
20 146 -3 18 -16 21 -17 45 -1 14 9 25 21 25 26 0 5 24 27 54 49 30 22 92 77
138 123 117 115 164 145 283 173 39 9 84 20 100 25 45 12 87 11 115 -3z m2735
-143 c82 -55 100 -72 109 -102 7 -24 15 -32 31 -32 27 0 49 -24 41 -45 -8 -21
-29 -19 -50 4 -23 25 -48 17 -40 -14 5 -19 1 -23 -23 -28 -15 -3 -36 -1 -46 5
-27 14 -16 42 18 48 17 3 25 8 20 12 -18 11 -129 46 -170 53 -22 4 -48 14 -57
23 -17 14 -17 16 0 46 31 56 31 56 91 50 31 -4 65 -12 76 -20z m1525 -154 c14
-8 50 -15 80 -15 79 0 128 -28 163 -90 33 -62 35 -130 2 -130 -14 0 -19 6 -17
18 2 13 -6 22 -27 30 -17 6 -31 15 -31 19 0 4 -7 8 -15 8 -10 0 -15 10 -15 30
0 23 -4 28 -16 23 -11 -4 -14 -13 -9 -30 5 -20 2 -24 -12 -22 -26 4 -84 -11
-79 -20 3 -4 -3 -19 -12 -33 -17 -26 -17 -26 -40 -7 -21 16 -22 22 -13 55 6
20 8 41 5 46 -3 5 1 17 10 27 16 17 15 20 -13 50 -16 17 -33 31 -39 31 -5 0
-12 6 -15 14 -8 19 59 16 93 -4z m-3681 -54 c10 -12 8 -23 -11 -55 -22 -38
-22 -40 -5 -59 10 -11 17 -26 16 -34 -3 -28 2 -38 21 -38 13 0 26 -13 39 -37
11 -21 29 -46 40 -55 12 -10 21 -25 21 -33 0 -25 -50 2 -97 53 l-42 46 -11
-28 c-14 -38 -13 -68 5 -93 12 -18 20 -20 49 -13 26 6 36 4 40 -6 6 -15 -13
-64 -24 -64 -16 0 -104 86 -115 113 -9 22 -26 35 -60 48 -27 10 -53 15 -58 12
-6 -3 -7 -1 -4 5 8 12 -2 42 -14 42 -5 0 -9 -6 -9 -12 0 -9 -14 -12 -41 -11
-29 1 -46 -4 -57 -18 -9 -10 -27 -19 -41 -19 -13 0 -32 -6 -40 -14 -24 -22
-71 -31 -72 -15 -1 8 -2 19 -4 24 -1 6 -3 14 -3 19 -1 5 -10 2 -19 -5 -17 -13
-17 -13 -3 5 8 11 35 28 59 39 24 11 55 32 68 47 30 36 83 57 195 75 84 13
107 24 108 49 0 14 32 46 45 46 7 0 18 -6 24 -14z m2437 -17 c24 -14 34 -28
34 -45 0 -34 36 -67 65 -60 31 8 71 -24 62 -49 -5 -13 -13 -15 -30 -10 -12 3
-38 7 -57 8 -52 3 -93 32 -86 62 4 14 0 27 -9 35 -8 7 -15 19 -15 26 0 22 -16
16 -28 -11 -14 -30 -35 -32 -62 -5 -26 26 -25 34 3 48 19 10 33 13 81 21 5 0
24 -8 42 -20z m-3006 -122 c47 -24 85 -49 85 -57 0 -9 -22 -18 -65 -26 -36 -7
-88 -21 -117 -33 -29 -11 -54 -17 -57 -13 -4 6 23 119 39 160 7 19 24 14 115
-31z m1954 -18 c15 -5 32 -6 37 -3 10 6 45 -28 103 -99 l38 -47 57 5 c74 5
119 -8 162 -47 l35 -33 33 33 c65 66 127 69 235 12 41 -22 84 -40 94 -40 41 0
132 -96 132 -140 0 -8 14 -43 31 -77 17 -35 29 -70 25 -78 -5 -13 -10 -13 -46
1 -48 20 -59 14 -36 -20 20 -31 20 -36 1 -36 -8 0 -15 -5 -15 -12 0 -8 -7 -6
-17 5 -15 15 -16 19 -4 27 12 7 12 11 2 24 -7 9 -11 25 -8 36 3 11 1 23 -4 26
-15 9 -23 -27 -11 -47 16 -24 15 -29 -3 -29 -8 0 -15 3 -15 8 0 4 -14 8 -31 9
-30 2 -31 2 -27 -37 4 -49 -8 -52 -27 -6 -14 34 -59 71 -74 61 -15 -9 -39 5
-44 25 -3 10 -20 26 -38 35 -19 9 -54 26 -79 40 -73 38 -114 41 -152 11 l-33
-25 -27 26 -27 26 5 -24 c5 -23 5 -23 -13 4 -20 30 -40 35 -45 11 -3 -14 -7
-13 -28 5 -17 15 -21 24 -13 27 8 4 11 15 7 31 -5 19 -4 24 6 18 8 -5 11 -2 8
11 -2 11 -13 20 -26 22 -12 2 -22 8 -22 14 0 7 -5 6 -14 -1 -12 -10 -17 -8
-25 8 -12 22 -15 62 -3 46 4 -5 16 -17 27 -25 16 -13 16 -9 -5 25 -36 60 -42
64 -59 47 -16 -15 -18 -13 -46 33 -15 25 -101 44 -139 31 -17 -6 -37 -15 -43
-19 -7 -5 -20 -4 -29 1 -20 11 -79 -1 -102 -21 -23 -20 -62 -31 -62 -18 0 24
59 72 130 106 41 20 82 40 90 44 17 9 91 4 134 -10z m-417 -95 c18 -20 33 -38
33 -39 0 -2 -9 -5 -20 -8 -29 -8 -24 -23 10 -36 28 -9 30 -12 19 -33 -27 -51
-29 -59 -24 -68 11 -18 22 -10 29 20 3 18 12 30 21 30 18 0 18 -1 1 -35 -8
-15 -12 -34 -9 -41 3 -9 -2 -14 -14 -14 -21 0 -63 42 -63 62 0 7 -7 3 -15 -9
-8 -12 -12 -29 -8 -39 5 -14 3 -16 -11 -11 -11 5 -20 0 -27 -16 -6 -13 -24
-28 -41 -35 -16 -6 -27 -15 -24 -20 3 -5 -5 -19 -19 -32 -18 -17 -35 -22 -67
-21 -175 5 -176 5 -217 -28 -21 -17 -43 -31 -47 -31 -5 0 -22 -7 -38 -15 -15
-8 -32 -12 -37 -9 -16 9 -11 84 6 90 10 4 15 18 14 43 -3 87 21 135 86 168 16
9 36 23 45 31 16 16 220 116 255 125 11 2 44 5 74 6 51 1 57 -2 88 -35z m2159
-19 c10 -8 33 -15 50 -15 17 0 38 -7 45 -17 8 -9 29 -23 48 -30 19 -8 50 -26
68 -40 34 -26 79 -90 70 -100 -6 -5 -83 11 -152 33 -22 6 -42 11 -44 9 -4 -5
17 -45 63 -119 25 -41 36 -72 36 -98 0 -28 4 -38 16 -38 8 0 12 5 9 10 -3 6 1
10 10 10 9 0 22 -13 28 -30 6 -17 24 -36 39 -43 26 -11 40 -47 18 -47 -5 0
-10 -9 -10 -19 0 -32 -13 -31 -52 2 -51 45 -76 62 -138 94 -44 23 -55 34 -56
54 0 13 -3 30 -8 37 -4 6 -4 17 -1 22 8 14 -4 52 -15 45 -5 -3 -24 14 -44 37
-20 23 -36 37 -36 32 0 -5 -12 -17 -28 -26 -26 -16 -28 -15 -50 9 -27 31 -29
53 -2 28 16 -15 22 -15 35 -5 8 7 15 19 15 26 0 8 6 11 15 8 20 -8 19 10 -1
27 -26 21 -83 14 -113 -15 -19 -18 -30 -23 -41 -16 -10 6 -11 10 -3 10 7 0 10
7 6 16 -3 8 -15 14 -27 12 -11 -2 -30 5 -41 15 -18 16 -18 20 -5 45 20 36 93
70 163 75 32 2 60 7 64 11 11 11 49 6 69 -9z m-4755 -232 c2 -61 -3 -158 -8
-166 -2 -4 -19 5 -36 20 -18 15 -62 41 -100 57 -37 15 -67 34 -67 41 0 7 30
20 68 30 37 9 76 23 87 31 34 22 55 17 56 -13z m4344 -272 c3 -5 0 -13 -6 -16
-6 -4 -8 -18 -5 -31 4 -15 1 -26 -10 -32 -13 -7 -16 -19 -11 -51 4 -29 2 -41
-6 -38 -7 2 -20 -7 -30 -20 -24 -30 -48 -29 -77 2 -13 14 -29 25 -37 25 -7 0
-13 5 -13 10 0 6 -7 10 -15 10 -9 0 -15 9 -15 23 0 13 -8 32 -19 41 -17 16
-19 16 -24 -4 -4 -15 -13 -20 -36 -20 -17 0 -31 5 -31 11 0 23 22 49 41 49 11
0 17 5 14 10 -4 6 -1 17 5 25 10 12 41 15 141 15 70 0 130 -4 134 -9z m1373
-332 c37 -12 62 -27 62 -35 0 -8 5 -14 11 -14 5 0 7 6 3 13 -4 6 2 4 14 -7 12
-10 19 -22 17 -27 -3 -4 4 -10 14 -14 11 -3 30 -22 42 -41 27 -45 20 -84 -17
-84 -23 0 -46 18 -86 68 -20 25 -50 30 -42 7 7 -16 -21 -22 -30 -6 -3 4 -22
11 -42 14 -48 8 -68 25 -52 44 9 11 9 16 0 22 -7 4 -10 15 -7 23 4 9 -1 18
-11 22 -13 5 -14 9 -4 21 17 21 55 19 128 -6z m-3921 -134 c34 -20 63 -42 63
-49 0 -7 17 -24 37 -37 21 -13 39 -33 42 -44 2 -11 12 -27 22 -36 17 -15 24
-79 8 -79 -3 0 -21 21 -39 48 -18 26 -45 60 -59 75 -30 33 -119 97 -105 76 24
-38 32 -79 18 -96 -9 -12 -16 -14 -21 -7 -13 18 -53 36 -68 30 -8 -3 -16 0
-19 7 -5 9 -7 9 -12 0 -6 -14 -34 -5 -51 16 -10 14 -15 14 -45 -1 -18 -9 -44
-15 -58 -14 -14 2 -38 4 -53 5 -27 1 -27 1 -9 21 23 24 89 41 78 19 -4 -8 6 1
22 19 27 31 51 44 36 20 -5 -8 -2 -9 12 -4 10 5 38 11 62 13 23 3 40 8 37 11
-5 5 24 42 33 42 3 0 34 -16 69 -35z m230 -624 c36 -69 69 -131 74 -137 5 -6
7 -13 4 -15 -2 -3 7 -18 20 -33 28 -33 32 -64 10 -72 -14 -6 -166 18 -285 45
-25 5 -75 23 -112 40 -36 17 -71 31 -77 31 -5 0 -37 13 -71 29 l-62 28 32 7
c18 3 43 6 55 6 53 0 180 80 280 176 48 47 61 55 63 40 2 -10 33 -75 69 -145z
m1458 -180 c16 -29 58 -84 92 -121 71 -77 71 -81 -19 -100 -43 -10 -64 -10
-85 -2 -15 7 -55 14 -87 17 -33 3 -63 8 -67 11 -5 2 -24 -2 -44 -11 -20 -8
-58 -17 -83 -20 -26 -3 -64 -8 -84 -11 -22 -3 -38 -2 -38 4 0 12 100 62 124
62 28 0 115 63 116 83 0 5 24 37 53 70 30 34 57 70 60 80 9 24 23 10 62 -62z
m-1505 -563 c39 -13 54 -28 26 -28 -7 0 -16 -9 -19 -20 -3 -11 -1 -20 3 -20 5
0 16 -3 25 -7 14 -5 16 -2 11 14 -4 13 -1 25 9 33 13 11 15 9 13 -11 -2 -18 1
-23 15 -21 28 5 20 -15 -10 -23 -15 -3 -45 -15 -67 -26 -24 -12 -42 -15 -44
-9 -4 12 -32 13 -32 1 0 -5 -17 -8 -37 -6 -34 2 -38 5 -35 26 1 13 4 34 5 46
2 24 17 44 17 23 0 -7 11 -1 25 14 27 29 39 31 95 14z"/>
<path d="M3045 4796 c-17 -7 -37 -21 -45 -31 -13 -15 -12 -19 3 -30 9 -7 17
-17 17 -24 0 -18 35 -13 63 9 33 26 34 26 42 -10 11 -52 75 -27 91 35 8 33 6
35 -50 37 -26 1 -52 8 -58 15 -13 16 -25 16 -63 -1z"/>
<path d="M4766 7153 c-27 -7 -49 -30 -36 -38 5 -3 10 -17 10 -29 0 -13 6 -29
14 -35 8 -6 17 -32 21 -58 l7 -45 44 5 c37 4 54 14 104 61 34 33 71 59 89 62
17 4 29 10 26 14 -2 4 -17 5 -32 2 -25 -5 -27 -4 -14 11 18 23 -5 23 -30 1
-14 -12 -22 -13 -38 -4 -12 6 -21 15 -21 21 0 5 -14 2 -31 -6 -34 -18 -85 -16
-81 3 1 6 -3 12 -9 12 -6 0 -9 7 -5 15 3 8 4 14 3 14 -1 -1 -11 -4 -21 -6z"/>
<path d="M7215 7130 c-3 -5 -18 -10 -32 -10 -31 0 -27 -8 8 -14 13 -2 26 -5
28 -5 2 -1 -2 -8 -10 -17 -17 -21 -2 -30 62 -38 39 -5 48 -10 51 -29 2 -15 12
-23 33 -27 17 -3 34 -14 41 -28 19 -39 49 -59 95 -67 24 -4 57 -13 73 -21 36
-17 36 -17 36 0 0 7 -7 19 -15 26 -8 7 -15 22 -15 35 0 24 -27 53 -50 52 -41
-1 -152 27 -157 39 -3 8 -11 14 -19 14 -8 0 -14 7 -14 15 0 17 -34 37 -45 27
-5 -4 -5 1 -1 12 11 31 -52 64 -69 36z"/>
<path d="M7942 6931 c-31 -30 -63 -51 -83 -55 -51 -10 -44 -10 -159 13 -37 8
-56 8 -58 1 -2 -5 -10 -10 -18 -10 -21 0 -17 -26 10 -53 21 -21 25 -22 34 -8
9 13 11 12 11 -10 1 -20 11 -30 46 -48 25 -12 52 -32 61 -44 11 -15 18 -18 21
-9 7 19 33 14 33 -7 0 -18 36 -35 77 -36 7 0 13 -4 13 -8 -1 -8 54 -57 64 -57
3 0 6 45 6 100 0 55 -3 100 -7 100 -5 0 -19 17 -33 38 -14 20 -29 40 -35 44
-5 4 9 6 33 4 l42 -4 0 49 c0 27 -2 49 -4 49 -2 0 -26 -22 -54 -49z"/>
<path d="M1092 6498 c-7 -7 -12 -18 -12 -26 0 -11 -3 -12 -13 -3 -8 6 -17 8
-20 4 -4 -3 -7 1 -7 11 0 14 -6 16 -37 10 -43 -7 -55 -14 -28 -14 14 0 15 -3
5 -15 -7 -8 -18 -15 -25 -15 -12 0 -45 -31 -45 -43 0 -3 8 -8 18 -10 10 -3 6
-5 -11 -6 -15 0 -30 -8 -33 -16 -4 -10 -20 -15 -45 -15 -32 0 -39 -4 -39 -19
0 -12 -8 -21 -22 -24 l-23 -4 23 -2 c24 -1 31 -21 8 -21 -8 0 -21 -7 -30 -15
-8 -8 -25 -14 -38 -13 -18 2 -23 -2 -23 -20 0 -12 -6 -27 -14 -31 -8 -5 -12
-18 -8 -30 3 -14 0 -21 -10 -21 -8 0 -12 3 -10 8 3 4 1 16 -4 27 -7 17 -8 17
-8 -7 -1 -18 -6 -28 -16 -28 -8 0 -15 -4 -15 -10 0 -5 -5 -10 -10 -10 -17 0
-67 -53 -71 -75 -5 -23 -62 -54 -101 -55 -16 0 -28 -6 -28 -13 0 -21 -47 -60
-64 -54 -12 5 -16 0 -16 -22 0 -22 -6 -30 -24 -35 -14 -3 -28 -15 -31 -26 -3
-11 -10 -20 -15 -20 -5 0 -10 -8 -12 -17 -3 -15 -4 -15 -21 1 -16 17 -17 17
-17 -2 0 -25 -42 -70 -74 -78 -15 -3 -26 -14 -28 -27 -3 -21 -41 -46 -77 -51
-14 -3 -16 -30 -19 -264 l-2 -262 162 164 c90 90 191 187 226 215 60 50 62 53
62 99 0 101 39 167 127 216 54 31 69 32 125 9 41 -16 42 -16 57 8 34 52 126
139 169 160 25 11 61 32 79 46 28 21 31 28 21 40 -10 12 -28 14 -93 9 -155
-11 -205 -18 -205 -29 0 -6 -3 -8 -6 -4 -3 3 -16 2 -29 -3 -33 -13 -37 -3 -14
38 10 20 19 49 19 65 0 16 7 30 16 34 8 3 13 12 10 19 -3 8 1 14 9 14 8 0 15
4 15 8 0 5 52 15 115 22 87 10 119 18 131 32 10 10 21 18 25 18 17 0 49 35 49
53 0 26 28 90 46 104 9 6 13 16 9 22 -8 14 -18 14 -33 -1z"/>
<path d="M6647 5956 l-58 -11 33 -31 c18 -18 66 -49 107 -69 40 -20 96 -54
123 -76 27 -21 56 -39 64 -39 31 0 45 75 21 116 -21 37 -77 95 -105 110 -31
16 -102 16 -185 0z"/>
<path d="M495 4290 c-3 -6 -17 -7 -31 -4 -20 5 -24 2 -24 -15 0 -12 7 -24 15
-27 21 -8 13 -99 -11 -125 -15 -17 -15 -21 -1 -57 14 -35 19 -120 16 -282 0
-14 2 -70 6 -125 3 -55 5 -128 5 -163 0 -34 5 -73 12 -86 13 -24 115 -136 124
-136 11 0 2 107 -11 124 -17 22 -20 102 -5 111 13 8 13 202 0 210 -5 3 -9 32
-8 63 0 31 -5 82 -11 112 -10 44 -10 73 1 147 11 71 11 101 3 130 -6 21 -10
44 -7 51 6 19 -7 64 -17 58 -5 -3 -14 1 -21 9 -14 17 -26 19 -35 5z"/>
<path d="M4582 2799 c-11 -17 -11 -24 1 -42 8 -12 17 -34 20 -49 8 -30 0 -34
-67 -37 -62 -3 -67 -12 -30 -50 19 -19 34 -29 34 -22 0 6 9 11 19 11 11 0 21
4 23 9 2 5 20 11 41 14 48 6 72 24 56 43 -6 8 -19 14 -29 14 -12 0 -17 8 -16
28 1 24 4 27 17 19 20 -12 49 -3 49 16 0 16 -47 40 -61 32 -5 -4 -9 3 -9 14 0
28 -31 27 -48 0z"/>
<path d="M7710 2361 c0 -24 14 -41 34 -41 14 -1 8 -6 -18 -15 -43 -15 -56 -29
-56 -60 0 -12 -5 -26 -11 -32 -14 -14 5 -54 24 -49 6 1 9 1 5 -1 -14 -8 -8
-23 9 -23 9 0 24 -7 33 -15 9 -8 34 -18 55 -23 24 -4 44 -16 50 -27 12 -24 49
-22 67 4 14 20 17 21 51 21 14 0 26 9 34 25 9 20 8 25 -3 25 -8 0 -17 -7 -20
-15 -4 -8 -11 -15 -16 -15 -10 0 -7 47 7 103 6 24 4 29 -14 34 -11 3 -21 9
-21 14 0 16 -56 66 -87 79 -18 7 -42 10 -53 7 -11 -3 -20 -1 -20 4 0 5 -11 9
-25 9 -14 0 -25 -4 -25 -9z"/>
<path d="M26 1890 c15 -22 31 -40 35 -40 5 0 9 -4 9 -9 0 -9 42 -61 88 -108
12 -13 22 -26 22 -28 0 -14 190 -200 285 -280 166 -140 461 -344 575 -399 19
-9 27 -11 16 -4 -10 7 -80 54 -155 104 -136 90 -233 160 -302 218 -89 74 -146
124 -193 168 -84 76 -291 289 -347 356 -29 34 -54 62 -56 62 -2 0 9 -18 23
-40z"/>
</g>
</svg>
