<?xml version="1.0" standalone="no"?>
<!DOCTYPE svg PUBLIC "-//W3C//DTD SVG 20010904//EN"
 "http://www.w3.org/TR/2001/REC-SVG-20010904/DTD/svg10.dtd">
<svg version="1.0" xmlns="http://www.w3.org/2000/svg"
 width="800.000000pt" height="800.000000pt" viewBox="0 0 800.000000 800.000000"
 preserveAspectRatio="xMidYMid meet">
<metadata>
Created by potrace 1.16, written by Peter Selinger 2001-2019
</metadata>
<g transform="translate(0.000000,800.000000) scale(0.100000,-0.100000)"
fill="#000000" stroke="none">
<path d="M0 4000 l0 -4000 1150 0 c632 0 1149 4 1149 8 -6 38 55 46 86 12 17
-19 31 -20 352 -20 326 0 333 0 333 20 0 11 5 20 10 20 6 0 10 -9 10 -20 0
-20 7 -20 378 -20 l378 0 -4 38 c-4 37 -17 62 -33 62 -5 0 -6 -13 -2 -30 4
-20 2 -30 -7 -30 -7 0 -10 8 -7 20 3 11 1 20 -4 20 -14 0 -11 73 4 95 8 11 24
53 37 93 21 66 29 77 54 73 20 -4 35 37 36 96 0 71 29 133 61 133 10 0 19 -4
19 -10 0 -5 11 -10 25 -10 32 0 55 44 55 107 0 46 2 49 42 68 44 21 78 66 78
102 0 18 5 21 28 19 39 -5 50 2 45 27 -3 15 5 33 26 55 29 30 41 55 24 50 -8
-3 -13 5 -13 21 0 5 12 16 26 26 20 13 28 14 40 4 9 -7 11 -16 6 -23 -14 -17
-22 -57 -10 -50 6 4 8 -1 3 -15 -21 -68 3 -141 47 -141 57 0 80 105 34 154
-13 15 -31 26 -41 26 -14 0 -15 3 -5 15 9 11 8 19 -4 37 -19 27 -21 78 -3 78
8 0 7 4 -3 10 -10 6 -11 10 -2 10 6 0 12 5 12 11 0 6 9 24 20 39 24 33 60 31
60 -4 0 -18 -2 -19 -11 -6 -8 11 -9 7 -5 -19 12 -69 27 -107 54 -138 l28 -33
32 42 c18 23 32 50 32 59 0 32 18 29 50 -7 30 -35 31 -39 25 -95 -6 -50 -4
-64 14 -93 12 -19 29 -37 38 -40 19 -7 77 10 113 33 13 9 21 11 18 5 -4 -6 2
-25 13 -42 10 -18 19 -44 19 -58 0 -47 26 -81 71 -92 24 -6 46 -9 51 -6 4 3 8
-1 8 -8 0 -8 18 -18 43 -24 34 -7 43 -14 45 -34 6 -52 38 -101 85 -133 22 -15
49 -112 40 -147 -3 -14 -14 -36 -25 -49 -10 -13 -18 -33 -18 -45 0 -42 -12
-62 -61 -100 -27 -21 -58 -58 -69 -81 -16 -34 -26 -43 -46 -43 -14 0 -31 -5
-37 -11 -8 -8 380 -11 1496 -11 l1507 0 0 4000 0 4000 -4000 0 -4000 0 0
-4000z m3778 1656 c246 -36 460 -69 475 -75 16 -6 47 -11 70 -11 78 0 492 -58
531 -74 21 -9 49 -16 63 -16 13 0 33 -5 45 -11 18 -10 19 -17 13 -67 -4 -32
-12 -60 -19 -64 -6 -4 -32 -8 -57 -8 -26 0 -61 -6 -78 -13 -30 -13 -31 -14
-13 -30 10 -9 41 -21 68 -26 27 -6 96 -28 154 -51 58 -22 123 -43 145 -47 22
-3 64 -17 92 -29 50 -22 61 -23 195 -17 107 4 152 10 178 23 20 10 58 21 85
25 28 3 95 13 150 21 61 10 125 13 165 9 46 -4 77 -2 107 9 51 18 197 31 247
22 24 -5 36 -12 36 -23 0 -9 5 -31 12 -49 10 -29 8 -36 -29 -92 -23 -34 -43
-59 -45 -57 -2 3 -21 0 -42 -6 -21 -6 -77 -14 -124 -19 -48 -5 -99 -12 -114
-15 -28 -7 -28 -7 -28 40 l0 47 -55 -4 c-64 -5 -90 -25 -124 -93 -15 -29 -29
-45 -41 -45 -49 0 -24 -44 32 -56 14 -3 39 -20 55 -36 21 -23 23 -28 7 -20
-11 6 -26 7 -33 2 -10 -6 -8 -10 10 -16 13 -4 28 -7 32 -6 4 1 29 -10 55 -25
25 -15 53 -28 61 -30 24 -3 34 -19 23 -40 -14 -25 -63 -23 -72 3 -7 18 -8 17
-14 -4 -10 -29 -16 -24 -21 18 -3 18 -6 33 -7 34 -2 0 -17 8 -35 17 -30 16
-32 16 -65 -6 -39 -27 -84 -43 -74 -26 4 6 15 11 25 11 10 0 24 6 30 14 9 11
4 14 -30 14 -33 1 -42 -3 -46 -19 -3 -10 -10 -19 -16 -19 -6 0 -7 3 -4 7 4 3
2 11 -3 18 -7 8 -2 16 18 25 15 7 31 13 36 11 4 -1 14 3 22 10 8 6 21 9 29 5
9 -3 15 0 15 8 0 17 -43 36 -60 26 -15 -9 -50 -1 -50 12 0 5 -8 8 -17 7 -10
-2 -35 1 -57 5 -31 6 -42 4 -60 -13 -12 -11 -40 -21 -66 -24 -52 -5 -91 5 -71
18 8 4 17 2 22 -6 6 -10 9 -11 9 -1 0 7 13 12 32 12 17 0 40 7 50 17 20 18 25
38 6 27 -7 -5 -8 -3 -3 5 4 7 16 10 27 8 25 -7 32 12 17 49 -9 22 -13 25 -16
12 -6 -23 -22 -22 -53 2 -29 22 -90 27 -90 7 0 -10 -17 -12 -67 -9 -38 2 -64
1 -60 -4 4 -4 26 -9 48 -10 22 -1 52 -5 67 -9 24 -6 25 -8 9 -16 -24 -14 -11
-32 14 -19 11 6 17 15 14 21 -4 5 -2 9 4 9 21 0 21 -20 -1 -31 -12 -7 -29 -18
-36 -26 -7 -7 -19 -13 -27 -13 -7 0 -22 -3 -32 -6 -13 -4 -11 0 7 14 37 31 21
34 -36 8 -39 -18 -52 -20 -61 -11 -7 7 -9 16 -6 19 4 3 2 6 -4 6 -5 0 -13 -3
-16 -7 -4 -3 -36 -5 -72 -4 -71 3 -90 -14 -27 -25 95 -17 71 -35 -90 -68 -31
-6 -60 -15 -65 -19 -4 -5 3 -6 17 -3 14 3 45 8 70 10 25 3 66 14 90 25 46 21
85 27 93 14 3 -5 -8 -9 -24 -10 -16 -1 -41 -9 -56 -17 -26 -14 -26 -15 -6 -16
12 0 24 -4 28 -9 3 -5 26 2 52 17 26 14 41 28 35 30 -16 5 -15 19 2 25 10 4
13 1 9 -9 -3 -8 1 -14 8 -14 8 0 -3 -12 -24 -27 -44 -31 -42 -41 5 -18 51 27
71 47 56 58 -9 6 -6 7 10 4 12 -3 22 -1 22 4 0 5 7 9 15 9 36 0 -4 -52 -49
-64 -35 -9 -33 -23 4 -24 16 0 35 -4 42 -8 15 -9 20 -10 111 -18 57 -5 67 -4
67 9 0 13 -4 14 -21 5 -29 -16 -35 -5 -10 16 19 16 19 18 3 31 -15 12 -14 13
6 3 26 -12 53 -3 31 11 -11 7 -11 9 1 9 8 0 28 7 44 15 27 14 31 14 39 0 5 -9
16 -14 25 -11 9 3 24 1 32 -4 13 -8 13 -10 -1 -10 -9 0 -22 -7 -29 -15 -7 -8
-16 -13 -20 -10 -4 2 -16 -5 -28 -15 -21 -20 -42 -26 -42 -13 0 4 12 17 27 29
16 13 22 23 15 27 -6 4 -16 1 -24 -6 -7 -7 -21 -16 -31 -20 -17 -6 -17 -8 -2
-23 12 -12 13 -19 4 -30 -9 -11 -7 -14 9 -14 12 0 24 -5 27 -10 4 -6 22 -9 40
-7 48 6 35 -9 -15 -17 -33 -5 -47 -2 -70 14 -35 25 -39 25 -37 1 0 -11 6 -17
14 -14 7 3 13 0 13 -6 0 -18 -30 -12 -38 7 -7 18 -12 17 -97 -10 -89 -28 -90
-28 -105 -8 -10 13 -19 17 -29 11 -8 -5 -20 -7 -27 -4 -6 2 -15 0 -19 -6 -4
-7 6 -11 27 -11 19 0 42 -6 52 -13 17 -13 17 -14 -10 -24 -40 -16 -199 -51
-258 -57 -27 -3 -54 -10 -60 -15 -22 -17 -122 -40 -191 -45 -102 -6 -176 -15
-210 -26 -26 -8 -85 -10 -85 -3 0 2 15 9 33 17 68 28 175 48 267 51 88 2 190
24 214 46 17 15 -26 10 -82 -10 -53 -18 -54 -18 -95 2 -47 22 -127 35 -127 20
0 -6 -15 -10 -32 -10 l-33 -1 42 19 c24 11 86 29 140 40 99 21 123 31 123 54
0 8 6 16 13 18 6 3 2 6 -11 6 -13 1 -20 -3 -17 -9 3 -5 2 -10 -4 -10 -5 0 -13
5 -16 10 -10 17 -37 11 -42 -9 -4 -15 -18 -19 -86 -24 -118 -10 -308 -67 -220
-67 18 0 35 -5 39 -11 4 -8 -1 -9 -16 -4 -15 5 -20 4 -16 -4 4 -6 2 -9 -7 -6
-7 3 -30 -2 -51 -10 -32 -14 -40 -14 -47 -3 -8 12 -13 4 -10 -15 1 -4 -12 -10
-29 -14 -17 -3 -33 -10 -37 -16 -4 -6 8 -7 33 -2 22 4 64 8 94 9 30 2 68 8 84
15 16 6 37 10 45 9 9 -2 -18 -17 -59 -33 -41 -15 -85 -34 -96 -42 -45 -29
-143 -11 -130 24 5 11 2 14 -11 8 -37 -14 -133 -18 -133 -5 0 8 -8 7 -26 -5
-14 -9 -28 -14 -31 -11 -3 3 2 8 11 12 9 3 16 15 16 26 0 15 5 18 23 14 12 -3
16 -3 9 0 -10 5 -9 10 4 25 17 19 17 19 -7 9 -13 -6 -32 -13 -41 -16 -10 -4
-18 -11 -18 -16 0 -5 -4 -7 -9 -4 -5 4 -12 0 -14 -6 -4 -9 -6 -9 -6 -1 -1 6
14 24 32 39 29 25 30 26 7 19 -14 -4 -39 -24 -57 -44 l-32 -36 -26 26 c-22 22
-28 38 -32 92 -5 56 -3 70 16 96 22 31 61 41 86 23 14 -9 60 -119 57 -134 -3
-14 17 -8 30 8 42 52 59 65 78 59 13 -4 24 1 36 20 10 15 26 25 40 25 29 0 66
17 127 58 27 17 53 32 58 32 5 0 30 13 56 29 32 19 73 33 122 40 40 6 81 15
90 20 9 5 39 12 66 16 28 4 66 17 85 30 42 27 77 40 150 56 88 19 86 17 64 37
-10 10 -44 28 -74 40 -83 33 -451 154 -455 150 -2 -2 14 -26 35 -54 34 -45 37
-54 26 -69 -8 -12 -10 -31 -6 -54 l6 -36 -160 1 c-89 0 -221 4 -293 9 l-133 8
0 -29 c0 -33 -26 -77 -41 -69 -5 4 -9 21 -9 39 0 26 -5 35 -22 40 -29 7 -98
-13 -105 -31 -11 -28 -42 -14 -54 25 -6 21 -18 48 -28 59 -17 22 -63 27 -647
63 -152 10 -160 11 -181 36 -26 28 -28 42 -12 77 23 50 75 62 384 87 152 13
155 14 155 38 0 11 -6 24 -12 29 -7 5 -103 37 -213 72 -115 36 -209 72 -222
83 -67 62 -18 157 80 158 26 0 249 -29 495 -64z m-1292 -471 c28 -32 31 -41
27 -83 -3 -26 -11 -64 -19 -84 -11 -32 -11 -36 0 -32 8 3 16 -2 19 -13 3 -10
5 -1 6 20 0 20 6 37 11 37 6 0 10 -17 10 -37 l0 -38 65 68 c86 89 120 88 174
-9 l23 -41 -22 -43 c-12 -23 -30 -52 -41 -63 -31 -33 -23 -40 36 -32 46 5 55
4 55 -9 0 -9 5 -16 12 -16 8 0 7 -5 -3 -16 -24 -24 -89 -29 -133 -10 -43 18
-141 22 -131 6 3 -5 21 -11 38 -11 26 -1 27 -3 8 -6 -13 -3 -25 -13 -28 -23
-3 -13 -19 -19 -58 -24 -29 -3 -61 -3 -69 0 -10 4 -16 1 -16 -8 0 -8 -8 -22
-18 -32 -18 -15 -22 -15 -66 5 -49 21 -56 42 -18 47 12 2 19 8 16 14 -4 6 3 8
17 6 14 -2 23 2 22 8 -1 7 12 11 34 10 22 -1 38 4 41 13 3 8 -1 12 -9 9 -8 -3
-20 1 -27 9 -7 7 -26 13 -41 13 -16 0 -45 7 -65 15 -34 15 -36 14 -36 -5 0
-11 5 -20 10 -20 6 0 10 -4 10 -10 0 -5 -25 -10 -55 -10 -55 0 -73 -13 -35
-25 26 -8 70 -62 70 -86 0 -12 10 -23 25 -29 14 -5 25 -16 25 -25 0 -14 19
-20 44 -16 6 1 20 -3 32 -10 30 -16 20 -37 -29 -59 l-40 -18 -45 28 c-32 20
-51 26 -66 20 -12 -4 -34 -3 -50 3 -24 8 -31 7 -42 -7 -17 -24 -48 -13 -75 25
-16 23 -20 40 -16 70 5 39 4 40 -41 65 l-47 25 56 -5 c46 -5 59 -3 73 13 16
18 16 19 -11 26 -15 4 -48 7 -73 6 -50 -2 -114 14 -90 21 8 3 29 9 45 14 21 7
31 17 33 33 5 33 29 55 61 56 22 0 26 4 24 25 -8 77 -5 102 14 122 40 40 109
4 190 -97 22 -28 33 -36 36 -25 2 8 14 56 26 105 29 117 55 175 78 175 9 0 32
-16 49 -35z m1974 -199 c47 -3 119 0 160 5 74 9 110 5 110 -11 0 -22 -46 -29
-226 -34 -191 -7 -250 0 -242 26 6 16 44 26 83 22 17 -2 68 -5 115 -8z m-2811
-10 c32 -17 51 -54 51 -102 0 -25 4 -33 13 -28 6 4 1 -5 -13 -21 -17 -19 -21
-29 -12 -32 19 -7 14 -41 -8 -48 -11 -4 -43 1 -70 10 -28 9 -72 20 -98 23 -37
6 -49 13 -59 33 -12 25 -18 27 -108 34 -63 4 -95 11 -92 18 6 19 59 27 128 21
74 -7 104 3 114 38 4 13 17 33 28 46 24 26 83 30 126 8z m248 -320 l28 -15
-25 -2 c-14 -1 -31 -1 -38 0 -7 1 -15 -6 -19 -16 -3 -10 -13 -26 -21 -35 -14
-16 -13 -18 3 -18 14 0 16 -5 11 -27 -4 -16 -14 -34 -23 -40 -24 -18 -92 -17
-99 2 -4 8 -17 15 -29 15 -13 0 -38 12 -55 26 -36 30 -27 44 27 44 49 0 62 9
73 50 6 23 17 40 28 42 27 6 108 -9 139 -26z m3716 -89 c-18 -7 -40 -23 -50
-37 -22 -32 -54 -59 -70 -60 -20 0 -15 21 6 27 12 3 19 13 18 24 -1 17 -8 18
-82 15 -184 -10 -257 -19 -262 -32 -3 -8 -13 -14 -24 -14 -10 0 -23 -9 -29
-20 -6 -11 -15 -20 -21 -20 -6 0 -17 -7 -26 -15 -8 -8 -19 -13 -24 -9 -12 7
-48 -36 -49 -58 0 -25 7 -23 47 13 23 20 43 29 55 26 11 -3 35 1 54 9 20 8 43
12 53 9 11 -3 26 4 42 21 23 25 79 54 103 54 6 0 -5 -9 -24 -21 -34 -20 -60
-46 -60 -59 0 -8 60 1 147 23 37 9 65 11 70 6 6 -6 24 0 46 15 20 14 39 21 42
16 3 -5 12 -7 21 -3 10 4 11 9 5 17 -6 7 -8 21 -5 32 4 17 12 19 69 16 36 -2
65 -7 65 -11 0 -5 15 -8 33 -8 81 0 88 -2 85 -25 -2 -16 3 -24 17 -26 17 -4
18 -2 6 11 -16 20 -8 33 25 41 37 10 56 -10 30 -30 -19 -13 -19 -14 7 -15 15
-1 32 -3 37 -4 6 -1 16 -3 23 -5 24 -4 -124 -29 -235 -39 -62 -6 -169 -14
-238 -17 -69 -3 -137 -7 -152 -8 -29 -1 -40 -16 -13 -16 8 0 15 -8 15 -19 0
-29 -150 -85 -206 -76 -23 3 -48 12 -54 20 -9 11 -3 16 32 26 24 6 67 14 97
18 30 3 56 11 58 18 3 8 -22 11 -91 10 -74 -2 -100 -6 -116 -19 -11 -10 -20
-24 -20 -31 0 -14 -97 -61 -151 -72 -19 -3 -60 -15 -92 -26 -56 -19 -84 -18
-72 2 7 11 3 11 -19 3 -9 -3 -16 -12 -16 -20 0 -17 -12 -18 -29 -1 -11 10 -13
10 -7 0 8 -15 2 -16 -43 -7 -23 5 -30 11 -26 21 4 12 0 14 -20 9 -18 -5 -31 0
-47 16 l-22 22 24 8 c25 8 5 5 -79 -9 -21 -4 -36 -2 -41 7 -4 7 -13 9 -19 5
-9 -5 -9 -10 0 -21 12 -14 -1 -20 -15 -7 -4 4 -14 8 -23 8 -9 0 -21 8 -27 18
-9 15 -6 22 17 41 25 20 26 24 12 30 -9 3 -22 3 -28 0 -15 -7 33 36 59 54 17
11 15 12 -16 7 -40 -6 -158 -62 -180 -84 -39 -40 -61 -53 -106 -57 -37 -4 -56
-12 -81 -36 -34 -32 -43 -63 -21 -70 6 -2 50 2 97 9 47 7 102 13 122 13 19 0
44 7 55 15 32 24 152 5 294 -47 30 -11 80 -24 110 -29 30 -6 60 -15 67 -21 9
-7 36 -8 78 -4 36 4 65 3 65 -1 0 -5 -28 -21 -62 -38 -60 -27 -70 -29 -205
-30 -79 -1 -146 -5 -150 -8 -3 -4 -17 -7 -31 -7 -17 0 -23 4 -18 15 4 11 -1
15 -19 15 -13 0 -27 5 -30 11 -10 16 1 22 22 11 29 -15 133 -25 133 -13 0 6
-7 11 -15 11 -8 0 -40 14 -70 30 -30 17 -62 30 -70 30 -8 0 -15 4 -15 9 0 7
-24 8 -93 2 -10 0 -15 -5 -12 -11 3 -5 -3 -10 -14 -10 -11 0 -23 5 -26 10 -3
6 -15 10 -26 10 -17 0 -23 -12 -22 -47 1 -7 -4 -13 -11 -14 -6 0 -21 -2 -33
-3 -15 -2 -23 4 -28 21 -7 29 -62 35 -59 6 1 -7 -8 -12 -22 -11 -19 2 -24 8
-24 30 0 18 -5 28 -14 28 -23 0 -29 19 -13 38 7 9 17 25 20 35 4 10 11 16 17
12 5 -3 16 8 25 24 19 38 19 45 -1 37 -31 -12 -7 18 32 40 21 12 47 37 56 55
22 45 22 48 -4 41 -20 -5 -21 -4 -6 17 9 13 26 30 38 38 20 14 23 14 31 0 18
-32 61 -77 74 -77 7 0 18 7 26 16 11 13 28 15 108 10 134 -8 145 -8 336 2 125
7 189 15 240 31 38 11 89 21 113 21 32 0 49 6 67 24 14 14 27 20 30 15 4 -5
18 -7 33 -4 15 3 45 8 66 10 21 3 44 9 50 13 11 7 163 18 276 20 53 0 54 0 23
-11z m-4149 -42 c-3 -7 3 -16 13 -18 10 -3 0 -4 -22 -1 l-40 4 40 -18 c34 -17
43 -17 60 -6 25 18 30 18 50 -2 11 -12 19 -14 27 -6 6 6 17 7 27 2 9 -5 30
-15 46 -23 17 -8 52 -26 78 -41 56 -30 79 -33 75 -9 -2 12 11 22 49 35 l53 19
47 -28 c27 -15 54 -35 61 -45 8 -11 23 -28 35 -38 30 -29 15 -35 -38 -14 -28
10 -51 27 -58 41 -6 14 -19 23 -32 23 -35 0 -89 -21 -107 -41 -14 -16 -25 -18
-72 -13 -38 5 -56 3 -56 -4 0 -16 88 -19 144 -5 45 12 49 11 67 -10 24 -29 24
-31 -12 -44 -27 -11 -30 -15 -27 -50 3 -33 0 -38 -20 -41 -12 -2 -51 12 -85
31 -63 34 -101 42 -270 53 l-67 5 -19 -44 c-17 -39 -22 -43 -48 -40 -15 3 -53
-5 -83 -17 -43 -17 -66 -20 -107 -15 -44 5 -53 4 -53 -9 0 -9 8 -16 20 -16 47
0 11 -37 -37 -38 -38 -1 -56 -9 -47 -23 3 -5 7 -27 9 -48 5 -46 -13 -68 -42
-53 -10 6 -36 14 -58 19 -33 7 -41 12 -43 35 -4 31 15 44 76 54 34 5 40 10 38
30 -1 16 -6 22 -16 19 -8 -3 -28 2 -44 10 -21 11 -32 12 -42 4 -8 -6 -12 -15
-9 -19 3 -4 -2 -13 -10 -20 -21 -17 -19 -3 7 53 17 34 30 49 48 53 42 8 93 25
135 44 22 11 60 21 84 24 24 2 48 9 54 15 14 14 62 14 107 1 22 -7 42 -7 55
-1 11 5 42 17 68 27 26 9 51 22 54 27 13 21 -163 157 -202 157 -28 0 -32 -12
-10 -30 8 -7 15 -19 15 -26 0 -8 7 -14 15 -14 8 0 15 -5 15 -11 0 -6 -12 -9
-27 -8 -16 2 -37 -2 -48 -9 -20 -12 -20 -12 -1 -27 11 -8 15 -15 10 -15 -6 0
-20 11 -32 23 -22 23 -22 25 -6 63 9 21 20 48 24 59 7 18 18 20 98 22 71 1 90
-2 86 -12z m1645 -104 c8 -5 11 -16 7 -26 -5 -13 -9 -15 -20 -6 -14 12 -31 -4
-62 -55 -10 -17 -14 -17 -75 10 -123 53 -131 61 -81 72 15 3 32 7 37 9 22 8
181 4 194 -4z m-434 -128 c41 -9 75 -20 75 -24 0 -5 -35 -7 -77 -5 -85 3 -143
-8 -156 -30 -12 -22 -30 -17 -65 17 -35 34 -39 45 -19 52 28 12 171 6 242 -10z
m-934 -159 c48 -17 81 -25 119 -29 38 -3 38 -3 51 -26 10 -20 9 -21 -28 -17
-21 1 -38 -1 -38 -6 0 -18 -60 -26 -117 -15 -39 8 -62 8 -70 1 -7 -5 -29 -13
-48 -17 -19 -4 -41 -12 -47 -17 -7 -6 -25 -8 -39 -5 -14 2 -39 -2 -56 -10 -18
-9 -33 -12 -39 -6 -11 11 -79 4 -79 -8 0 -4 4 -10 8 -13 17 -11 273 -8 367 4
123 15 162 15 182 -2 11 -9 52 -13 133 -13 65 0 122 -3 126 -7 15 -16 -19 -36
-74 -42 -145 -18 -140 -18 -159 3 -10 12 -25 19 -37 16 -12 -2 -48 -7 -81 -9
-33 -3 -89 -9 -125 -15 -55 -9 -358 -23 -452 -21 -16 0 -28 -5 -28 -10 0 -7
-9 -5 -22 4 -28 20 -97 21 -104 2 -4 -10 -16 -12 -43 -9 -21 3 -48 0 -61 -7
-21 -11 -22 -10 -17 9 4 18 1 21 -26 21 -29 0 -30 -1 -11 -15 16 -12 17 -14 2
-15 -9 0 -23 -3 -32 -6 -25 -10 -20 41 6 66 26 24 12 22 168 25 135 2 201 13
208 33 3 9 -11 12 -55 10 -32 -2 -72 3 -90 11 -28 11 -32 17 -27 40 10 44 37
59 107 60 35 0 75 4 88 9 13 5 78 10 144 10 66 1 147 8 180 16 33 7 63 14 66
15 4 0 26 -6 50 -15z m2930 -375 c17 -17 33 -22 77 -21 31 0 50 -3 43 -8 -8
-4 9 -10 43 -14 113 -15 273 -74 269 -101 -2 -11 -16 -20 -45 -29 -26 -8 -23
-64 4 -93 26 -27 55 -29 98 -5 30 16 32 16 45 -1 7 -11 11 -25 8 -33 -3 -8 -1
-14 5 -14 25 0 18 -32 -15 -65 -29 -29 -34 -40 -28 -63 3 -15 18 -39 31 -53
19 -20 24 -32 18 -53 -6 -24 -4 -26 29 -26 22 0 37 6 41 15 3 8 1 15 -4 15 -6
0 -10 -5 -10 -11 0 -8 -5 -7 -15 1 -9 7 -13 15 -10 18 8 8 105 11 105 4 0 -4
14 -14 32 -21 21 -10 27 -16 18 -19 -52 -15 -80 -36 -75 -52 3 -10 -2 -25 -11
-34 -9 -9 -14 -25 -11 -36 3 -11 1 -23 -4 -26 -5 -3 -9 -12 -9 -20 0 -9 -7
-22 -16 -31 -14 -14 -18 -13 -42 10 -25 24 -31 26 -65 16 -65 -18 -85 -75 -46
-130 15 -22 28 -29 54 -29 29 0 45 11 110 76 42 42 78 74 81 71 9 -8 -41 -81
-76 -110 -34 -29 -32 -47 4 -47 12 0 27 -5 34 -12 16 -16 -3 -38 -32 -38 -32
0 -46 -19 -46 -62 0 -21 -4 -38 -10 -38 -5 0 -10 -5 -10 -12 0 -6 3 -8 7 -5 8
9 32 -23 33 -44 0 -9 -11 -21 -25 -27 -32 -15 -33 -34 -1 -26 14 3 30 3 36 -1
17 -11 -8 -35 -36 -35 -13 0 -24 -4 -24 -10 0 -5 5 -10 10 -10 14 0 13 -16 -2
-32 -31 -32 -7 -66 24 -35 21 21 48 28 41 11 -3 -8 1 -14 8 -14 23 -1 -23 -30
-46 -30 -13 0 -32 -13 -45 -30 -13 -16 -30 -30 -39 -30 -13 0 -13 -2 -2 -9 9
-6 12 -21 9 -45 -4 -34 -2 -36 32 -42 19 -4 47 -13 61 -20 21 -11 32 -11 52
-1 29 13 50 50 38 63 -5 5 12 27 36 50 42 39 60 43 47 10 -3 -8 -13 -18 -22
-21 -22 -6 -47 -46 -35 -54 13 -9 10 -23 -13 -56 -24 -34 -74 -121 -74 -129 0
-3 7 -6 15 -6 8 0 15 -4 15 -9 0 -5 -11 -8 -25 -6 -14 1 -25 -2 -25 -7 0 -5
-4 -7 -8 -4 -4 2 -14 0 -22 -5 -12 -8 -12 -12 -2 -16 25 -10 0 -21 -35 -16
-24 4 -34 3 -30 -4 4 -6 -6 -13 -22 -16 -18 -4 -32 -15 -36 -27 -4 -12 -22
-28 -41 -37 -19 -9 -34 -20 -34 -25 0 -4 -7 -8 -17 -8 -14 0 -14 2 2 20 18 19
17 20 -4 20 -21 0 -47 -40 -42 -67 1 -7 -18 -17 -41 -24 -24 -6 -55 -16 -70
-21 -15 -6 -46 -7 -70 -2 -24 4 -64 7 -89 6 -45 -1 -46 0 -55 36 -6 26 -18 41
-38 50 -43 21 -74 3 -82 -48 -6 -38 -8 -40 -43 -40 -20 0 -52 5 -71 10 -19 6
-63 11 -97 12 -46 1 -63 5 -63 14 0 8 -4 14 -10 14 -5 0 -10 -7 -10 -16 0 -24
-36 -8 -75 34 -19 21 -35 42 -35 49 0 7 -7 16 -15 20 -13 8 -18 30 -39 198 -2
17 -9 64 -15 105 -14 102 -14 110 7 110 42 0 54 47 27 100 -9 18 -24 30 -35
30 -27 0 -37 23 -45 110 -4 41 -12 84 -17 95 -5 13 -7 1 -3 -37 4 -50 2 -59
-14 -68 -30 -15 -31 -14 -26 38 2 27 -1 55 -7 63 -8 11 -9 11 -4 -3 3 -10 0
-18 -6 -18 -7 0 -9 13 -5 35 5 32 -4 77 -24 117 -13 26 -11 32 6 18 13 -10 19
-10 33 4 10 9 22 13 27 9 4 -5 5 2 1 13 -4 12 -8 36 -11 53 -3 27 0 31 20 31
37 0 45 40 19 96 -16 33 -36 42 -62 26 -9 -6 -10 -21 -3 -58 5 -27 8 -50 6
-52 -2 -2 -15 4 -29 13 -26 17 -26 17 -26 -11 0 -22 -3 -25 -10 -14 -5 8 -7
33 -5 55 3 35 2 38 -10 22 -11 -16 -13 -15 -17 13 -3 23 0 31 15 36 18 6 18 7
-3 21 -12 8 -19 21 -16 28 2 7 -4 22 -15 33 -27 29 -24 42 9 42 27 0 28 2 25
41 -5 69 -51 129 -66 87 -2 -7 -7 5 -11 27 -4 22 -12 46 -18 53 -7 8 -7 12 1
12 8 0 9 6 4 18 -5 9 -8 31 -8 47 0 17 -6 36 -12 43 -16 16 -17 32 -3 32 13 0
13 117 1 124 -16 10 -39 -4 -45 -27 -6 -21 -7 -21 -18 -3 -10 18 -11 18 -24
-5 -8 -15 -13 -18 -14 -9 0 9 7 26 16 39 14 19 23 22 63 19 32 -3 49 0 57 10
6 8 33 17 61 19 53 6 54 3 44 -49 0 -3 -14 -11 -31 -17 -16 -5 -30 -14 -30
-20 0 -8 32 -49 86 -110 1 -2 20 13 41 33 59 56 116 79 202 81 91 3 158 -15
231 -62 33 -22 56 -31 58 -24 2 6 13 11 25 11 20 1 67 31 67 43 0 3 -8 3 -19
0 -10 -3 -21 -1 -24 4 -3 5 12 10 34 10 57 3 72 10 85 38 11 23 9 25 -25 36
-50 16 -55 20 -40 30 26 16 78 10 100 -12z m1499 3 c0 -4 -21 -14 -47 -21 -27
-7 -65 -26 -85 -42 -20 -16 -41 -29 -47 -29 -5 0 -27 -21 -50 -46 -34 -39 -44
-45 -72 -42 -18 2 -34 8 -36 14 -7 22 163 134 242 160 45 14 95 18 95 6z
m-552 -17 c28 -9 54 -20 58 -26 10 -17 -12 -32 -46 -32 -22 0 -30 -5 -30 -19
0 -20 -8 -22 -29 -9 -8 5 -27 5 -45 0 -40 -12 -69 -2 -63 20 3 14 -3 17 -30
17 -35 0 -60 21 -44 37 27 27 155 34 229 12z m-3936 -293 c14 -9 38 -30 52
-45 25 -27 28 -27 77 -19 79 15 149 -8 149 -47 0 -21 -47 -66 -78 -76 -19 -5
-31 2 -66 40 l-43 47 -52 -6 c-62 -7 -128 9 -136 34 -11 35 25 89 60 90 6 0
22 -8 37 -18z m656 -24 c15 -15 16 -53 2 -78 -22 -41 -128 -44 -160 -5 -38 46
115 126 158 83z m2065 -1744 c21 -19 32 -23 40 -15 8 8 7 11 -3 11 -24 1 50
30 75 30 29 0 37 -20 25 -61 -5 -18 -7 -35 -4 -38 3 -3 36 -6 72 -7 47 0 66
-4 64 -12 -1 -7 5 -15 13 -18 26 -10 16 -24 -17 -24 -25 0 -29 -3 -18 -10 8
-5 25 -10 37 -10 23 0 32 -20 25 -56 -3 -19 -8 -20 -35 -14 -18 4 -40 11 -49
15 -13 5 -18 2 -18 -9 0 -18 -13 -20 -41 -6 -30 17 -22 37 19 46 22 4 30 9 20
11 -10 3 -18 11 -18 18 0 9 -17 16 -45 21 -25 3 -45 10 -45 15 0 20 -2 24 -14
31 -7 4 -21 5 -32 2 -15 -4 -20 -13 -18 -36 2 -25 -1 -29 -17 -25 -23 6 -24 3
-2 -19 16 -15 16 -17 0 -28 -21 -16 -16 -62 9 -81 17 -13 17 -14 2 -15 -11 0
-15 -5 -12 -15 8 -20 -3 -19 -25 3 -23 21 -37 62 -22 62 6 0 11 5 11 11 0 8
-5 7 -15 -1 -9 -7 -19 -10 -22 -6 -4 4 -1 11 7 17 13 8 13 10 0 19 -22 14 -19
31 9 64 18 19 22 30 14 33 -17 6 -16 23 2 43 15 16 10 60 -6 60 -5 0 -9 5 -9
10 0 17 14 11 43 -16z"/>
<path d="M4976 3206 c-27 -23 -28 -26 -16 -56 26 -62 93 -80 128 -35 17 21 19
32 11 57 -11 41 -19 48 -60 54 -26 3 -41 -1 -63 -20z"/>
<path d="M4909 2829 c-39 -39 -3 -128 52 -129 28 0 59 33 65 70 11 68 -68 108
-117 59z"/>
<path d="M5073 2615 c-45 -31 -47 -102 -3 -125 11 -6 18 -15 15 -20 -9 -15 9
-18 35 -7 14 5 33 9 44 8 10 -2 15 2 12 7 -3 6 3 27 15 46 12 20 16 36 10 36
-6 0 -11 9 -11 20 0 21 -45 50 -77 50 -10 0 -28 -7 -40 -15z"/>
<path d="M4853 2460 c-14 -6 -24 -21 -29 -45 -5 -30 -2 -41 17 -61 46 -49 127
-14 115 51 -10 53 -53 75 -103 55z"/>
<path d="M5013 2230 c-34 -21 -39 -38 -27 -99 4 -17 12 -31 19 -31 8 0 15 -5
17 -11 8 -23 75 9 88 41 14 34 1 84 -27 106 -24 18 -33 17 -70 -6z"/>
</g>
</svg>
